<svg width="100%" viewBox="0 0 16 16" fill="none" xmlns="http://www.w3.org/2000/svg">
<path d="M9.87995 2.83984C9.74754 3.07697 9.62955 3.32186 9.52661 3.57318C8.51512 3.41321 7.48477 3.41321 6.47328 3.57318C6.37034 3.32186 6.25235 3.07697 6.11995 2.83984C5.16714 3.00264 4.24088 3.2942 3.36661 3.70651C1.80324 5.9627 1.09424 8.70181 1.36661 11.4332C2.38544 12.1991 3.52892 12.7832 4.74661 13.1598C5.02389 12.7936 5.27135 12.4057 5.48661 11.9998C5.08933 11.8534 4.70748 11.668 4.34661 11.4465C4.44559 11.3807 4.53921 11.3071 4.62661 11.2265C5.67892 11.7334 6.83192 11.9966 7.99995 11.9966C9.16797 11.9966 10.321 11.7334 11.3733 11.2265C11.4666 11.3065 11.5599 11.3798 11.6533 11.4465C11.2905 11.6663 10.909 11.8537 10.5133 12.0065C10.7196 12.4215 10.9605 12.8185 11.2333 13.1932C12.4495 12.8179 13.591 12.2336 14.6066 11.4665C14.8855 8.73465 14.1759 5.9933 12.6066 3.73984C11.7422 3.319 10.8251 3.01629 9.87995 2.83984ZM5.78661 9.87318C5.453 9.84923 5.14164 9.69697 4.91789 9.44836C4.69414 9.19975 4.57541 8.87413 4.58661 8.53984C4.57372 8.20512 4.69187 7.87857 4.91595 7.62958C5.14004 7.3806 5.45239 7.22882 5.78661 7.20651C6.12084 7.22882 6.43319 7.3806 6.65727 7.62958C6.88135 7.87857 6.99951 8.20512 6.98661 8.53984C6.99951 8.87457 6.88135 9.20112 6.65727 9.4501C6.43319 9.69908 6.12084 9.85086 5.78661 9.87318ZM10.2133 9.87318C9.87967 9.84923 9.56831 9.69697 9.34456 9.44836C9.12081 9.19975 9.00208 8.87413 9.01328 8.53984C9.00039 8.20512 9.11854 7.87857 9.34262 7.62958C9.5667 7.3806 9.87905 7.22882 10.2133 7.20651C10.5481 7.22716 10.8615 7.37844 11.0859 7.62781C11.3103 7.87717 11.4279 8.20468 11.4133 8.53984C11.4279 8.87501 11.3103 9.20252 11.0859 9.45188C10.8615 9.70124 10.5481 9.85253 10.2133 9.87318Z" fill="white"/>
</svg>
