<svg width="100%" viewBox="0 0 16 16" fill="none" xmlns="http://www.w3.org/2000/svg">
<path d="M14.4001 8.07982C14.4001 7.27982 13.7601 6.63982 12.9601 6.71982C12.6401 6.71982 12.2401 6.87982 12.0001 7.11982C10.8801 6.39982 9.60008 5.91982 8.24008 5.91982L8.88008 2.87982L10.9601 3.35982C10.9601 3.91982 11.4401 4.31982 12.0001 4.31982C12.5601 4.31982 12.9601 3.83982 12.9601 3.27982C12.9601 2.71982 12.4801 2.31982 11.9201 2.31982C11.5201 2.31982 11.2001 2.55982 11.0401 2.87982L8.80008 2.31982H8.64008C8.56008 2.31982 8.56008 2.39982 8.56008 2.47982L7.76008 5.91982C6.40008 5.91982 5.12008 6.31982 4.00008 7.11982C3.44008 6.55982 2.56008 6.55982 2.00008 7.11982C1.44008 7.67982 1.44008 8.55982 2.00008 9.11982C2.08008 9.19982 2.24008 9.35982 2.40008 9.35982V9.75982C2.40008 11.9198 4.88008 13.6798 8.00008 13.6798C11.1201 13.6798 13.6001 11.9198 13.6001 9.75982V9.35982C14.0801 9.11982 14.4001 8.63982 14.4001 8.07982ZM4.80008 9.11982C4.80008 8.55982 5.28008 8.15982 5.76008 8.15982C6.32008 8.15982 6.72008 8.63982 6.72008 9.11982C6.72008 9.59982 6.24008 10.0798 5.76008 10.0798C5.20008 10.0798 4.80008 9.67982 4.80008 9.11982ZM10.4001 11.7598C9.68008 12.2398 8.88008 12.5598 8.00008 12.4798C7.12008 12.4798 6.32008 12.2398 5.60008 11.7598C5.52008 11.6798 5.52008 11.5198 5.60008 11.3598C5.68008 11.2798 5.84008 11.2798 5.92008 11.3598C6.48008 11.7598 7.20008 11.9998 7.92008 11.9198C8.64008 11.9998 9.36008 11.7598 9.92008 11.3598C10.0001 11.2798 10.1601 11.2798 10.3201 11.3598C10.4801 11.4398 10.4801 11.5998 10.4001 11.7598ZM10.1601 10.0798C9.60008 10.0798 9.20008 9.59982 9.20008 9.11982C9.20008 8.63982 9.68008 8.15982 10.1601 8.15982C10.7201 8.15982 11.1201 8.63982 11.1201 9.11982C11.2001 9.67982 10.7201 10.0798 10.1601 10.0798Z" fill="white"/>
</svg>
