<svg width="100%" viewBox="0 0 16 16" fill="none" xmlns="http://www.w3.org/2000/svg">
<path d="M13.0063 2.43699C13.0063 2.43699 14.3013 1.93199 14.193 3.15832C14.1573 3.66332 13.8337 5.43099 13.5816 7.34266L12.7183 13.006C12.7183 13.006 12.6463 13.8357 11.9986 13.98C11.3513 14.124 10.38 13.475 10.2 13.3307C10.056 13.2223 7.50198 11.599 6.60265 10.8057C6.35065 10.589 6.06265 10.1563 6.63865 9.65132L10.4157 6.04399C10.8473 5.61132 11.279 4.60132 9.48032 5.82766L4.44365 9.25432C4.44365 9.25432 3.86798 9.61532 2.78898 9.29066L0.450317 8.56899C0.450317 8.56899 -0.413017 8.02799 1.06198 7.48699C4.65965 5.79166 9.08465 4.06032 13.0056 2.43699H13.0063Z" fill="white"/>
</svg>
