<svg width="100%" viewBox="0 0 540 500" fill="none" xmlns="http://www.w3.org/2000/svg">
<path d="M540 302.5V382.46L337.74 500H237.21L508.5 342.35L194.66 161.15L244.75 132.04L540 302.5Z" fill="url(#paint0_linear_1373_1314)"/>
<path d="M206.2 382.78L17 492.73C11.748 489.039 7.46152 484.138 4.50263 478.441C1.54374 472.745 -0.000619844 466.419 1.86623e-07 460V444.19L155.78 353.66L206.2 382.78Z" fill="url(#paint1_linear_1373_1314)"/>
<path d="M168.02 305.8L117.92 334.91L0 266.83V208.79L168.02 305.8Z" fill="url(#paint2_linear_1373_1314)"/>
<path d="M416.82 117.89L383.38 137.32C382.505 137.766 381.537 137.999 380.555 137.999C379.573 137.999 378.605 137.766 377.73 137.32L289.73 86.5001C289.405 86.3561 289.125 86.1283 288.918 85.8401C288.71 85.5518 288.583 85.2136 288.55 84.8601L288 272.36C288.033 272.714 288.16 273.052 288.368 273.34C288.575 273.628 288.855 273.856 289.18 274L377.18 324.81C378.056 325.259 379.026 325.492 380.01 325.492C380.994 325.492 381.964 325.259 382.84 324.81L416.28 305.38C416.599 305.234 416.875 305.007 417.078 304.721C417.282 304.434 417.407 304.1 417.44 303.75L418 116.27C417.963 116.62 417.835 116.954 417.628 117.239C417.42 117.523 417.142 117.748 416.82 117.89Z" fill="url(#paint3_linear_1373_1314)"/>
<path d="M416.8 114.62C418.36 115.52 418.37 116.99 416.8 117.89L383.36 137.32C382.485 137.766 381.517 137.998 380.535 137.998C379.553 137.998 378.585 137.766 377.71 137.32L289.71 86.4999C288.15 85.5999 288.14 84.1299 289.71 83.2299L323.14 63.7999C324.014 63.3515 324.982 63.1177 325.965 63.1177C326.947 63.1177 327.916 63.3515 328.79 63.7999L416.8 114.62Z" fill="url(#paint4_linear_1373_1314)"/>
<path d="M450.91 330.18L410.74 353.52C409.864 353.968 408.895 354.202 407.91 354.202C406.926 354.202 405.956 353.968 405.08 353.52L383.2 340.89C382.873 340.746 382.589 340.518 382.38 340.227C382.171 339.937 382.043 339.596 382.01 339.24L381.94 363.69C381.971 364.048 382.098 364.391 382.308 364.683C382.517 364.975 382.801 365.206 383.13 365.35L405 378C405.876 378.448 406.846 378.682 407.83 378.682C408.814 378.682 409.784 378.448 410.66 378L450.83 354.65C451.154 354.504 451.434 354.274 451.639 353.984C451.845 353.694 451.97 353.354 452 353L452.07 328.55C452.037 328.899 451.913 329.234 451.709 329.52C451.505 329.806 451.23 330.034 450.91 330.18Z" fill="url(#paint5_linear_1373_1314)"/>
<path d="M450.89 326.9C452.46 327.81 452.47 329.28 450.89 330.18L410.72 353.52C409.844 353.969 408.874 354.203 407.89 354.203C406.906 354.203 405.936 353.969 405.06 353.52L383.2 340.89C381.63 339.98 381.62 338.52 383.2 337.61L423.37 314.27C424.246 313.822 425.216 313.588 426.2 313.588C427.184 313.588 428.154 313.822 429.03 314.27L450.89 326.9Z" fill="url(#paint6_linear_1373_1314)"/>
<path d="M274.05 123.07L235.47 145.49C234.595 145.934 233.627 146.165 232.645 146.165C231.664 146.165 230.696 145.934 229.82 145.49L191 123.07C190.674 122.925 190.393 122.696 190.186 122.406C189.978 122.116 189.852 121.775 189.82 121.42L189.57 211.09C189.602 211.445 189.728 211.786 189.936 212.076C190.143 212.366 190.424 212.595 190.75 212.74L229.58 235.16C230.456 235.604 231.424 235.835 232.405 235.835C233.387 235.835 234.355 235.604 235.23 235.16L273.81 212.74C274.13 212.594 274.405 212.367 274.609 212.08C274.812 211.794 274.937 211.46 274.97 211.11L275.22 121.44C275.186 121.791 275.06 122.126 274.854 122.412C274.649 122.698 274.372 122.925 274.05 123.07Z" fill="url(#paint7_linear_1373_1314)"/>
<path d="M274 119.8C275.57 120.7 275.58 122.17 274 123.07L235.42 145.49C234.544 145.934 233.577 146.165 232.595 146.165C231.613 146.165 230.646 145.934 229.77 145.49L191 123.07C189.44 122.17 189.43 120.7 191 119.8L229.58 97.38C230.454 96.9316 231.422 96.6978 232.405 96.6978C233.387 96.6978 234.356 96.9316 235.23 97.38L274 119.8Z" fill="url(#paint8_linear_1373_1314)"/>
<path d="M263.32 120.22C263.576 120.305 263.798 120.468 263.955 120.686C264.113 120.904 264.198 121.166 264.198 121.435C264.198 121.704 264.113 121.966 263.955 122.184C263.798 122.402 263.576 122.565 263.32 122.65L234.7 139.28C234.051 139.61 233.333 139.782 232.605 139.782C231.877 139.782 231.159 139.61 230.51 139.28L201.7 122.65C201.45 122.561 201.233 122.396 201.079 122.178C200.926 121.961 200.844 121.701 200.844 121.435C200.844 121.169 200.926 120.909 201.079 120.692C201.233 120.474 201.45 120.309 201.7 120.22L230.33 103.58C230.979 103.25 231.697 103.078 232.425 103.078C233.153 103.078 233.871 103.25 234.52 103.58L263.32 120.22Z" stroke="url(#paint9_linear_1373_1314)" stroke-width="0.5" stroke-miterlimit="10"/>
<path d="M202.73 140.15L202.7 151.14L196.56 147.6L196.59 136.6L202.73 140.15Z" fill="url(#paint10_linear_1373_1314)"/>
<path d="M213.87 146.58L213.84 157.58L207.7 154.03L207.73 143.04L213.87 146.58Z" fill="url(#paint11_linear_1373_1314)"/>
<path d="M225.02 153.02L224.99 164.01L218.85 160.47L218.88 149.47L225.02 153.02Z" fill="url(#paint12_linear_1373_1314)"/>
<path d="M202.73 179.17L202.7 190.17L196.56 186.62L196.59 175.63L202.73 179.17Z" fill="url(#paint13_linear_1373_1314)"/>
<path d="M213.87 185.61L213.84 196.6L207.7 193.06L207.73 182.06L213.87 185.61Z" fill="url(#paint14_linear_1373_1314)"/>
<path d="M225.02 192.04L224.99 203.04L218.85 199.49L218.88 188.5L225.02 192.04Z" fill="url(#paint15_linear_1373_1314)"/>
<path d="M202.73 198.69L202.7 209.68L196.56 206.13L196.59 195.14L202.73 198.69Z" fill="url(#paint16_linear_1373_1314)"/>
<path d="M213.87 205.12L213.84 216.12L207.7 212.57L207.73 201.58L213.87 205.12Z" fill="url(#paint17_linear_1373_1314)"/>
<path d="M225.02 211.56L224.99 222.55L218.85 219.01L218.88 208.01L225.02 211.56Z" fill="url(#paint18_linear_1373_1314)"/>
<path d="M202.69 159.66L202.66 170.66L196.51 167.11L196.54 156.11L202.69 159.66Z" fill="url(#paint19_linear_1373_1314)"/>
<path d="M213.83 166.09L213.8 177.09L207.66 173.54L207.69 162.55L213.83 166.09Z" fill="url(#paint20_linear_1373_1314)"/>
<path d="M224.98 172.53L224.94 183.53L218.81 179.98L218.84 168.99L224.98 172.53Z" fill="url(#paint21_linear_1373_1314)"/>
<path d="M264.2 140.15L264.23 151.14L270.37 147.6L270.34 136.6L264.2 140.15Z" fill="url(#paint22_linear_1373_1314)"/>
<path d="M253.05 146.58L253.08 157.58L259.22 154.03L259.19 143.04L253.05 146.58Z" fill="url(#paint23_linear_1373_1314)"/>
<path d="M241.91 153.02L241.94 164.01L248.08 160.47L248.04 149.47L241.91 153.02Z" fill="url(#paint24_linear_1373_1314)"/>
<path d="M264.2 179.17L264.23 190.17L270.37 186.62L270.34 175.63L264.2 179.17Z" fill="url(#paint25_linear_1373_1314)"/>
<path d="M253.05 185.61L253.08 196.6L259.22 193.06L259.19 182.06L253.05 185.61Z" fill="url(#paint26_linear_1373_1314)"/>
<path d="M241.91 192.04L241.94 203.04L248.08 199.49L248.04 188.5L241.91 192.04Z" fill="url(#paint27_linear_1373_1314)"/>
<path d="M264.2 198.69L264.23 209.68L270.37 206.13L270.34 195.14L264.2 198.69Z" fill="url(#paint28_linear_1373_1314)"/>
<path d="M253.05 205.12L253.08 216.12L259.22 212.57L259.19 201.58L253.05 205.12Z" fill="url(#paint29_linear_1373_1314)"/>
<path d="M241.91 211.56L241.94 222.55L248.08 219.01L248.04 208.01L241.91 211.56Z" fill="url(#paint30_linear_1373_1314)"/>
<path d="M264.24 159.66L264.27 170.66L270.41 167.11L270.38 156.11L264.24 159.66Z" fill="url(#paint31_linear_1373_1314)"/>
<path d="M253.1 166.09L253.13 177.09L259.27 173.54L259.24 162.55L253.1 166.09Z" fill="url(#paint32_linear_1373_1314)"/>
<path d="M241.95 172.53L241.98 183.53L248.12 179.98L248.09 168.99L241.95 172.53Z" fill="url(#paint33_linear_1373_1314)"/>
<path d="M263.68 227.31L206.68 260.43C205.803 260.876 204.834 261.109 203.85 261.109C202.866 261.109 201.897 260.876 201.02 260.43L120 213.62C119.674 213.48 119.392 213.257 119.181 212.972C118.97 212.688 118.839 212.352 118.8 212L118.46 334.28C118.491 334.634 118.615 334.974 118.821 335.264C119.027 335.554 119.306 335.784 119.63 335.93L200.69 382.73C201.567 383.174 202.537 383.405 203.52 383.405C204.503 383.405 205.473 383.174 206.35 382.73L263.35 349.62C263.669 349.474 263.945 349.247 264.148 348.96C264.352 348.674 264.477 348.34 264.51 347.99L264.86 225.72C264.818 226.065 264.687 226.392 264.481 226.671C264.274 226.95 263.998 227.17 263.68 227.31Z" fill="url(#paint34_linear_1373_1314)"/>
<path d="M263.65 224C265.22 224.9 265.23 226.37 263.65 227.27L206.65 260.39C205.773 260.836 204.804 261.069 203.82 261.069C202.836 261.069 201.867 260.836 200.99 260.39L120 213.62C118.44 212.72 118.43 211.25 120 210.35L177 177.24C177.874 176.792 178.842 176.558 179.825 176.558C180.807 176.558 181.776 176.792 182.65 177.24L263.65 224Z" fill="url(#paint35_linear_1373_1314)"/>
<path d="M179.65 215.8C179.834 215.863 179.993 215.981 180.106 216.139C180.219 216.297 180.28 216.486 180.28 216.68C180.28 216.874 180.219 217.063 180.106 217.221C179.993 217.379 179.834 217.497 179.65 217.56L160.14 228.9C159.675 229.135 159.161 229.257 158.64 229.257C158.119 229.257 157.606 229.135 157.14 228.9L128.95 212.63C128.767 212.567 128.608 212.449 128.495 212.291C128.382 212.133 128.321 211.944 128.321 211.75C128.321 211.556 128.382 211.367 128.495 211.209C128.608 211.051 128.767 210.933 128.95 210.87L148.47 199.53C148.936 199.295 149.449 199.173 149.97 199.173C150.492 199.173 151.005 199.295 151.47 199.53L179.65 215.8Z" fill="url(#paint36_linear_1373_1314)"/>
<path d="M252.54 244.82L252.56 251.68L223.95 268.19L223.93 261.34L252.54 244.82Z" fill="url(#paint37_linear_1373_1314)"/>
<path d="M252.6 267.65L252.62 274.5L224.01 291.02L223.99 284.16L252.6 267.65Z" fill="url(#paint38_linear_1373_1314)"/>
<path d="M252.67 290.48L252.69 297.33L224.08 313.85L224.06 307L252.67 290.48Z" fill="url(#paint39_linear_1373_1314)"/>
<path d="M252.8 336.14L252.82 343L224.21 359.52L224.19 352.66L252.8 336.14Z" fill="url(#paint40_linear_1373_1314)"/>
<path d="M252.73 313.31L252.75 320.16L224.14 336.68L224.12 329.83L252.73 313.31Z" fill="url(#paint41_linear_1373_1314)"/>
<path d="M366.87 298.38L306 333.74C305.124 334.188 304.154 334.422 303.17 334.422C302.186 334.422 301.216 334.188 300.34 333.74L239.08 298.38C238.754 298.235 238.473 298.006 238.266 297.716C238.058 297.426 237.932 297.085 237.9 296.73L237.61 399.44C237.642 399.795 237.768 400.136 237.976 400.426C238.183 400.716 238.464 400.945 238.79 401.09L300.04 436.46C300.919 436.904 301.891 437.135 302.875 437.135C303.86 437.135 304.831 436.904 305.71 436.46L366.56 401.09C366.878 400.945 367.153 400.719 367.356 400.435C367.56 400.15 367.685 399.818 367.72 399.47L368.02 296.75C367.988 297.099 367.865 297.433 367.663 297.719C367.461 298.005 367.188 298.233 366.87 298.38Z" fill="url(#paint42_linear_1373_1314)"/>
<path d="M366.84 295.1C368.41 296.01 368.42 297.48 366.84 298.38L306 333.74C305.124 334.189 304.154 334.422 303.17 334.422C302.186 334.422 301.216 334.189 300.34 333.74L239.08 298.38C237.52 297.48 237.51 296.01 239.08 295.1L299.94 259.74C300.814 259.292 301.783 259.058 302.765 259.058C303.747 259.058 304.716 259.292 305.59 259.74L366.84 295.1Z" fill="url(#paint43_linear_1373_1314)"/>
<path d="M347.52 298.94L303.02 324.8L258.23 298.94L302.72 273.08L347.52 298.94Z" fill="url(#paint44_linear_1373_1314)"/>
<path d="M342.96 264.66L303.01 287.87L262.79 264.65L302.74 241.44L342.96 264.66Z" fill="#E6E6E6"/>
<path d="M342.96 264.66L342.86 298.94L302.91 322.16L303.01 287.87L342.96 264.66Z" fill="url(#paint45_linear_1373_1314)"/>
<path d="M303.01 287.87L302.91 322.16L262.69 298.94L262.79 264.65L303.01 287.87Z" fill="url(#paint46_linear_1373_1314)"/>
<path d="M349.66 241.18L305.86 266.63C304.985 267.074 304.017 267.305 303.035 267.305C302.054 267.305 301.086 267.074 300.21 266.63L256.12 241.18C255.793 241.034 255.511 240.803 255.303 240.511C255.096 240.219 254.97 239.877 254.94 239.52L254.82 282C254.86 282.346 254.99 282.676 255.197 282.957C255.404 283.238 255.681 283.459 256 283.6L300.09 309.05C300.964 309.498 301.933 309.732 302.915 309.732C303.898 309.732 304.866 309.498 305.74 309.05L349.54 283.6C349.856 283.457 350.128 283.234 350.332 282.953C350.535 282.673 350.662 282.344 350.7 282L350.82 239.58C350.782 239.924 350.655 240.253 350.452 240.533C350.248 240.814 349.976 241.037 349.66 241.18Z" fill="url(#paint47_linear_1373_1314)"/>
<path d="M349.65 237.9C351.21 238.8 351.22 240.27 349.65 241.18L305.85 266.63C304.974 267.074 304.007 267.305 303.025 267.305C302.043 267.305 301.076 267.074 300.2 266.63L256.11 241.18C254.54 240.27 254.53 238.8 256.11 237.9L299.91 212.45C300.786 212.001 301.756 211.768 302.74 211.768C303.724 211.768 304.694 212.001 305.57 212.45L349.65 237.9Z" fill="url(#paint48_linear_1373_1314)"/>
<path d="M336.91 238.35C337.157 238.436 337.371 238.597 337.523 238.81C337.675 239.023 337.756 239.278 337.756 239.54C337.756 239.802 337.675 240.057 337.523 240.27C337.371 240.483 337.157 240.644 336.91 240.73L305.04 259.25C304.402 259.576 303.696 259.745 302.98 259.745C302.264 259.745 301.558 259.576 300.92 259.25L268.84 240.73C267.7 240.07 267.69 239 268.84 238.35L300.72 219.82C301.358 219.494 302.064 219.324 302.78 219.324C303.496 219.324 304.202 219.494 304.84 219.82L336.91 238.35Z" stroke="url(#paint49_linear_1373_1314)" stroke-width="0.5" stroke-miterlimit="10"/>
<path d="M302.82 188.98C304.742 188.98 306.3 187.422 306.3 185.5C306.3 183.578 304.742 182.02 302.82 182.02C300.898 182.02 299.34 183.578 299.34 185.5C299.34 187.422 300.898 188.98 302.82 188.98Z" fill="url(#paint50_linear_1373_1314)"/>
<path d="M309 179.77C308.84 179.77 308.681 179.739 308.533 179.677C308.386 179.615 308.252 179.524 308.14 179.41C307.438 178.707 306.604 178.149 305.686 177.768C304.768 177.387 303.784 177.192 302.79 177.192C301.796 177.192 300.812 177.387 299.894 177.768C298.976 178.149 298.142 178.707 297.44 179.41C297.327 179.522 297.193 179.611 297.046 179.672C296.898 179.732 296.74 179.763 296.581 179.763C296.422 179.762 296.264 179.73 296.117 179.669C295.97 179.608 295.837 179.518 295.725 179.405C295.612 179.292 295.524 179.158 295.463 179.011C295.403 178.864 295.372 178.706 295.372 178.547C295.373 178.387 295.404 178.23 295.466 178.083C295.527 177.936 295.617 177.802 295.73 177.69C297.604 175.821 300.143 174.772 302.79 174.772C305.437 174.772 307.975 175.821 309.85 177.69C309.963 177.802 310.053 177.935 310.115 178.082C310.176 178.228 310.208 178.386 310.208 178.545C310.208 178.704 310.176 178.862 310.115 179.009C310.053 179.155 309.963 179.288 309.85 179.4C309.741 179.516 309.609 179.609 309.463 179.673C309.317 179.736 309.159 179.77 309 179.77Z" fill="url(#paint51_linear_1373_1314)"/>
<path d="M313.77 175C313.611 175.002 313.452 174.972 313.305 174.911C313.157 174.851 313.023 174.762 312.91 174.65C310.234 171.974 306.604 170.471 302.82 170.471C299.036 170.471 295.406 171.974 292.73 174.65C292.63 174.794 292.501 174.914 292.35 175.003C292.2 175.092 292.032 175.147 291.858 175.165C291.684 175.182 291.509 175.162 291.343 175.105C291.178 175.049 291.027 174.957 290.9 174.836C290.774 174.716 290.675 174.569 290.611 174.407C290.546 174.244 290.518 174.07 290.527 173.895C290.537 173.721 290.584 173.55 290.665 173.396C290.747 173.241 290.861 173.106 291 173C292.55 171.449 294.39 170.219 296.416 169.38C298.441 168.54 300.612 168.108 302.805 168.108C304.998 168.108 307.169 168.54 309.194 169.38C311.22 170.219 313.06 171.449 314.61 173C314.837 173.228 314.965 173.538 314.965 173.86C314.965 174.182 314.837 174.491 314.61 174.72C314.378 174.921 314.076 175.021 313.77 175Z" fill="url(#paint52_linear_1373_1314)"/>
<path d="M318.31 170.48C318.151 170.481 317.994 170.449 317.848 170.387C317.702 170.326 317.57 170.235 317.46 170.12C313.578 166.239 308.314 164.059 302.825 164.059C297.336 164.059 292.072 166.239 288.19 170.12C287.963 170.348 287.655 170.477 287.333 170.478C287.012 170.479 286.703 170.352 286.475 170.125C286.247 169.898 286.118 169.59 286.117 169.269C286.116 168.947 286.243 168.638 286.47 168.41C288.615 166.26 291.164 164.555 293.97 163.391C296.775 162.227 299.783 161.628 302.82 161.628C305.857 161.628 308.865 162.227 311.67 163.391C314.476 164.555 317.024 166.26 319.17 168.41C319.336 168.581 319.448 168.797 319.493 169.031C319.538 169.266 319.513 169.508 319.421 169.728C319.33 169.949 319.176 170.137 318.978 170.271C318.781 170.404 318.548 170.477 318.31 170.48Z" fill="url(#paint53_linear_1373_1314)"/>
<path d="M302.82 195.31V232.51" stroke="url(#paint54_linear_1373_1314)" stroke-miterlimit="10" stroke-linecap="round"/>
<path d="M177.88 192.87L159.73 203.42C159.291 203.642 158.807 203.758 158.315 203.758C157.823 203.758 157.339 203.642 156.9 203.42L130.69 188.29C130.526 188.217 130.385 188.102 130.281 187.956C130.178 187.81 130.115 187.638 130.1 187.46L130 211.92C130.017 212.097 130.08 212.266 130.184 212.41C130.288 212.554 130.428 212.668 130.59 212.74L156.81 227.88C157.247 228.102 157.73 228.218 158.22 228.218C158.71 228.218 159.193 228.102 159.63 227.88L177.78 217.33C177.94 217.257 178.079 217.142 178.18 216.998C178.282 216.854 178.344 216.686 178.36 216.51L178.43 192.06C178.415 192.231 178.357 192.395 178.261 192.537C178.165 192.679 178.033 192.793 177.88 192.87Z" fill="url(#paint55_linear_1373_1314)"/>
<path d="M177.88 191.23C178.049 191.29 178.196 191.401 178.3 191.548C178.403 191.695 178.459 191.87 178.459 192.05C178.459 192.23 178.403 192.405 178.3 192.552C178.196 192.699 178.049 192.81 177.88 192.87L159.73 203.42C159.291 203.642 158.806 203.758 158.315 203.758C157.823 203.758 157.338 203.642 156.9 203.42L130.69 188.29C130.52 188.23 130.374 188.119 130.27 187.972C130.166 187.825 130.11 187.65 130.11 187.47C130.11 187.29 130.166 187.115 130.27 186.968C130.374 186.821 130.52 186.71 130.69 186.65L148.84 176.1C149.278 175.878 149.763 175.762 150.255 175.762C150.746 175.762 151.231 175.878 151.67 176.1L177.88 191.23Z" fill="url(#paint56_linear_1373_1314)"/>
<path d="M393.42 72.5C395.342 72.5 396.9 70.942 396.9 69.02C396.9 67.0981 395.342 65.54 393.42 65.54C391.498 65.54 389.94 67.0981 389.94 69.02C389.94 70.942 391.498 72.5 393.42 72.5Z" fill="url(#paint57_linear_1373_1314)"/>
<path d="M399.62 63.2801C399.461 63.2809 399.304 63.2494 399.158 63.1875C399.012 63.1256 398.88 63.0346 398.77 62.9201C397.349 61.5046 395.426 60.7098 393.42 60.7098C391.415 60.7098 389.491 61.5046 388.07 62.9201C387.841 63.1331 387.537 63.2487 387.224 63.2429C386.911 63.237 386.613 63.1101 386.392 62.8887C386.17 62.6673 386.043 62.3688 386.037 62.0557C386.031 61.7427 386.147 61.4396 386.36 61.2101C388.235 59.3415 390.773 58.2922 393.42 58.2922C396.067 58.2922 398.606 59.3415 400.48 61.2101C400.594 61.3226 400.684 61.4566 400.746 61.6042C400.807 61.7518 400.839 61.9102 400.839 62.0701C400.839 62.2301 400.807 62.3884 400.746 62.536C400.684 62.6837 400.594 62.8176 400.48 62.9301C400.25 63.1538 399.941 63.2792 399.62 63.2801Z" fill="url(#paint58_linear_1373_1314)"/>
<path d="M404.37 58.54C404.21 58.5404 404.051 58.5088 403.903 58.447C403.756 58.3851 403.622 58.2944 403.51 58.18C400.834 55.5041 397.204 54.0009 393.42 54.0009C389.635 54.0009 386.006 55.5041 383.33 58.18C383.1 58.393 382.797 58.5087 382.484 58.5028C382.171 58.4969 381.873 58.37 381.651 58.1486C381.43 57.9272 381.303 57.6287 381.297 57.3157C381.291 57.0026 381.407 56.6995 381.62 56.47C383.169 54.9195 385.008 53.6895 387.033 52.8503C389.058 52.0111 391.228 51.5791 393.42 51.5791C395.612 51.5791 397.782 52.0111 399.807 52.8503C401.831 53.6895 403.671 54.9195 405.22 56.47C405.333 56.5817 405.423 56.7148 405.485 56.8616C405.546 57.0083 405.578 57.1659 405.578 57.325C405.578 57.4842 405.546 57.6417 405.485 57.7885C405.423 57.9353 405.333 58.0684 405.22 58.18C405.11 58.2945 404.978 58.3855 404.832 58.4474C404.686 58.5093 404.529 58.5408 404.37 58.54Z" fill="url(#paint59_linear_1373_1314)"/>
<path d="M408.91 53.9999C408.588 53.999 408.28 53.8735 408.049 53.6499C404.169 49.7698 398.907 47.59 393.42 47.59C387.932 47.59 382.67 49.7698 378.79 53.6499C378.556 53.8492 378.256 53.9532 377.949 53.9411C377.643 53.929 377.352 53.8018 377.135 53.5847C376.918 53.3677 376.79 53.0768 376.778 52.7701C376.766 52.4633 376.87 52.1633 377.07 51.9299C381.407 47.5955 387.288 45.1606 393.42 45.1606C399.551 45.1606 405.432 47.5955 409.77 51.9299C409.994 52.1597 410.12 52.4684 410.12 52.7899C410.12 53.1114 409.994 53.4201 409.77 53.6499C409.539 53.8735 409.231 53.999 408.91 53.9999Z" fill="url(#paint60_linear_1373_1314)"/>
<path d="M393.42 78.8301V116.02" stroke="url(#paint61_linear_1373_1314)" stroke-miterlimit="10" stroke-linecap="round"/>
<path d="M232.38 72.5C234.302 72.5 235.86 70.942 235.86 69.02C235.86 67.0981 234.302 65.54 232.38 65.54C230.458 65.54 228.9 67.0981 228.9 69.02C228.9 70.942 230.458 72.5 232.38 72.5Z" fill="url(#paint62_linear_1373_1314)"/>
<path d="M238.59 63.28C238.43 63.2798 238.272 63.2479 238.124 63.1861C237.977 63.1243 237.843 63.0339 237.73 62.92C237.028 62.2178 236.194 61.6611 235.276 61.2819C234.358 60.9027 233.374 60.7083 232.38 60.71C231.381 60.6999 230.391 60.8903 229.467 61.2699C228.542 61.6495 227.704 62.2106 227 62.92C226.774 63.1481 226.466 63.2767 226.144 63.2777C225.822 63.2786 225.514 63.1517 225.285 62.925C225.057 62.6982 224.929 62.3901 224.928 62.0685C224.927 61.7469 225.054 61.4381 225.28 61.21C227.155 59.3383 229.696 58.2871 232.345 58.2871C234.995 58.2871 237.536 59.3383 239.41 61.21C239.638 61.4385 239.765 61.7477 239.765 62.07C239.765 62.3922 239.638 62.7014 239.41 62.93C239.192 63.1476 238.899 63.2729 238.59 63.28Z" fill="url(#paint63_linear_1373_1314)"/>
<path d="M243.33 58.5399C243.17 58.5397 243.012 58.5079 242.864 58.4461C242.717 58.3843 242.583 58.2938 242.47 58.1799C239.794 55.504 236.165 54.0007 232.38 54.0007C228.596 54.0007 224.966 55.504 222.29 58.1799C222.179 58.2933 222.046 58.3833 221.899 58.4448C221.752 58.5062 221.594 58.5379 221.435 58.5379C221.276 58.5379 221.119 58.5062 220.972 58.4448C220.825 58.3833 220.692 58.2933 220.58 58.1799C220.354 57.953 220.227 57.6455 220.227 57.3249C220.227 57.0043 220.354 56.6968 220.58 56.4699C222.13 54.9191 223.971 53.6888 225.996 52.8495C228.022 52.0101 230.193 51.5781 232.385 51.5781C234.578 51.5781 236.749 52.0101 238.775 52.8495C240.8 53.6888 242.64 54.9191 244.19 56.4699C244.357 56.641 244.469 56.857 244.514 57.0913C244.558 57.3256 244.533 57.5678 244.442 57.7881C244.35 58.0083 244.196 58.1969 243.999 58.3305C243.801 58.4642 243.569 58.537 243.33 58.5399Z" fill="url(#paint64_linear_1373_1314)"/>
<path d="M247.87 54.0001C247.712 54.0005 247.556 53.9698 247.41 53.9097C247.264 53.8497 247.132 53.7615 247.02 53.6501C243.138 49.7694 237.874 47.5893 232.385 47.5893C226.896 47.5893 221.632 49.7694 217.75 53.6501C217.521 53.8822 217.208 54.0136 216.882 54.0155C216.556 54.0174 216.242 53.8895 216.01 53.6601C215.778 53.4307 215.646 53.1185 215.645 52.7922C215.643 52.4659 215.771 52.1522 216 51.9201C220.337 47.5857 226.218 45.1509 232.35 45.1509C238.482 45.1509 244.363 47.5857 248.7 51.9201C248.871 52.0894 248.988 52.3058 249.035 52.5416C249.082 52.7775 249.058 53.0222 248.966 53.2444C248.874 53.4666 248.717 53.6562 248.517 53.789C248.316 53.9219 248.081 53.9919 247.84 53.9901L247.87 54.0001Z" fill="url(#paint65_linear_1373_1314)"/>
<path d="M232.38 78.8301V116.02" stroke="url(#paint66_linear_1373_1314)" stroke-miterlimit="10" stroke-linecap="round"/>
<path d="M273.27 397.81C272.394 398.258 271.424 398.492 270.44 398.492C269.456 398.492 268.486 398.258 267.61 397.81L231.35 376.88C231.024 376.735 230.743 376.506 230.535 376.216C230.328 375.926 230.202 375.585 230.17 375.23V380.12C230.202 380.475 230.328 380.816 230.535 381.106C230.743 381.396 231.024 381.625 231.35 381.77L267.62 402.71C268.497 403.154 269.467 403.385 270.45 403.385C271.433 403.385 272.403 403.154 273.28 402.71L290.09 392.94V388.05L273.27 397.81Z" fill="url(#paint67_linear_1373_1314)"/>
<path d="M290.08 388.05L273.27 397.81C272.394 398.259 271.424 398.492 270.44 398.492C269.456 398.492 268.486 398.259 267.61 397.81L231.35 376.88C229.78 375.97 229.77 374.51 231.35 373.6L248.16 363.83L290.08 388.05Z" fill="url(#paint68_linear_1373_1314)"/>
<path d="M412.02 139.11L412.03 144.76L388.47 158.36L388.45 152.72L412.02 139.11Z" fill="url(#paint69_linear_1373_1314)"/>
<path d="M412.07 157.91L412.09 163.56L388.52 177.17L388.5 171.52L412.07 157.91Z" fill="url(#paint70_linear_1373_1314)"/>
<path d="M412.12 176.72L412.14 182.37L388.57 195.97L388.56 190.33L412.12 176.72Z" fill="url(#paint71_linear_1373_1314)"/>
<path d="M412.23 214.33L412.25 219.98L388.68 233.59L388.66 227.94L412.23 214.33Z" fill="url(#paint72_linear_1373_1314)"/>
<path d="M412.18 195.53L412.19 201.17L388.63 214.77L388.61 209.13L412.18 195.53Z" fill="url(#paint73_linear_1373_1314)"/>
<path d="M412.28 233.13L412.3 238.78L388.73 252.39L388.72 246.74L412.28 233.13Z" fill="url(#paint74_linear_1373_1314)"/>
<path d="M412.34 251.94L412.35 257.59L388.79 271.19L388.77 265.54L412.34 251.94Z" fill="url(#paint75_linear_1373_1314)"/>
<path d="M129.85 232.13L129.84 238.99L158.45 255.51L158.47 248.65L129.85 232.13Z" fill="url(#paint76_linear_1373_1314)"/>
<path d="M129.79 254.96L129.77 261.82L158.38 278.34L158.4 271.48L129.79 254.96Z" fill="url(#paint77_linear_1373_1314)"/>
<path d="M129.72 277.8L129.71 284.65L158.32 301.17L158.34 294.32L129.72 277.8Z" fill="url(#paint78_linear_1373_1314)"/>
<path d="M129.6 323.46L129.58 330.31L158.19 346.83L158.21 339.97L129.6 323.46Z" fill="url(#paint79_linear_1373_1314)"/>
<path d="M129.66 300.63L129.64 307.48L158.25 324L158.27 317.15L129.66 300.63Z" fill="url(#paint80_linear_1373_1314)"/>
<path d="M258.3 323.13L258.25 338.52L249.65 333.55L249.7 318.16L258.3 323.13Z" fill="url(#paint81_linear_1373_1314)"/>
<path d="M273.9 332.13L273.85 347.52L265.26 342.56L265.3 327.17L273.9 332.13Z" fill="url(#paint82_linear_1373_1314)"/>
<path d="M289.5 341.14L289.46 356.53L280.86 351.57L280.91 336.18L289.5 341.14Z" fill="url(#paint83_linear_1373_1314)"/>
<path d="M258.24 344.84L258.19 360.23L249.59 355.27L249.64 339.88L258.24 344.84Z" fill="url(#paint84_linear_1373_1314)"/>
<path d="M273.83 353.85L273.79 369.24L265.2 364.28L265.24 348.88L273.83 353.85Z" fill="url(#paint85_linear_1373_1314)"/>
<path d="M289.44 362.86L289.39 378.25L280.8 373.29L280.85 357.89L289.44 362.86Z" fill="url(#paint86_linear_1373_1314)"/>
<path d="M324.91 376.18L324.95 391.57L316.36 396.54L316.32 381.14L324.91 376.18Z" fill="url(#paint87_linear_1373_1314)"/>
<path d="M340.51 367.17L340.56 382.57L331.96 387.53L331.92 372.13L340.51 367.17Z" fill="url(#paint88_linear_1373_1314)"/>
<path d="M356.12 358.16L356.16 373.56L347.56 378.52L347.52 363.12L356.12 358.16Z" fill="url(#paint89_linear_1373_1314)"/>
<path d="M324.97 397.89L325.02 413.28L316.42 418.25L316.38 402.85L324.97 397.89Z" fill="url(#paint90_linear_1373_1314)"/>
<path d="M340.58 388.88L340.62 404.27L332.02 409.24L331.98 393.85L340.58 388.88Z" fill="url(#paint91_linear_1373_1314)"/>
<path d="M356.18 379.87L356.22 395.26L347.62 400.23L347.58 384.84L356.18 379.87Z" fill="url(#paint92_linear_1373_1314)"/>
<path d="M184.29 261.61L184 362.3L175.04 357.12L175.32 256.44L184.29 261.61Z" fill="url(#paint93_linear_1373_1314)"/>
<path d="M148.37 141.98C150.292 141.98 151.85 140.422 151.85 138.5C151.85 136.578 150.292 135.02 148.37 135.02C146.448 135.02 144.89 136.578 144.89 138.5C144.89 140.422 146.448 141.98 148.37 141.98Z" fill="url(#paint94_linear_1373_1314)"/>
<path d="M154.58 132.76C154.42 132.76 154.261 132.728 154.114 132.666C153.966 132.604 153.832 132.514 153.72 132.4C152.301 130.985 150.379 130.191 148.375 130.191C146.371 130.191 144.449 130.985 143.03 132.4C142.803 132.628 142.495 132.757 142.173 132.758C141.852 132.759 141.543 132.632 141.315 132.405C141.087 132.178 140.958 131.87 140.957 131.549C140.956 131.227 141.083 130.918 141.31 130.69C143.185 128.818 145.726 127.767 148.375 127.767C151.024 127.767 153.565 128.818 155.44 130.69C155.665 130.92 155.79 131.228 155.79 131.55C155.79 131.871 155.665 132.18 155.44 132.41C155.209 132.634 154.901 132.759 154.58 132.76Z" fill="url(#paint95_linear_1373_1314)"/>
<path d="M159.32 128C159.16 128 159.002 127.968 158.854 127.906C158.707 127.844 158.573 127.754 158.46 127.64C157.136 126.315 155.564 125.265 153.834 124.548C152.103 123.831 150.249 123.462 148.375 123.462C146.502 123.462 144.648 123.831 142.917 124.548C141.187 125.265 139.615 126.315 138.29 127.64C138.064 127.868 137.756 127.997 137.434 127.998C137.112 127.999 136.804 127.872 136.575 127.645C136.347 127.418 136.219 127.11 136.218 126.789C136.217 126.467 136.344 126.158 136.57 125.93C138.12 124.379 139.961 123.149 141.986 122.31C144.012 121.47 146.183 121.038 148.375 121.038C150.568 121.038 152.739 121.47 154.765 122.31C156.79 123.149 158.631 124.379 160.18 125.93C160.347 126.101 160.459 126.317 160.504 126.551C160.548 126.786 160.524 127.028 160.432 127.248C160.341 127.469 160.186 127.657 159.989 127.791C159.791 127.924 159.559 127.997 159.32 128Z" fill="url(#paint96_linear_1373_1314)"/>
<path d="M163.87 123.47C163.71 123.471 163.552 123.441 163.405 123.381C163.257 123.321 163.123 123.232 163.01 123.12C159.128 119.239 153.864 117.059 148.375 117.059C142.886 117.059 137.622 119.239 133.74 123.12C133.627 123.234 133.493 123.325 133.344 123.388C133.196 123.45 133.038 123.482 132.877 123.483C132.716 123.484 132.557 123.454 132.408 123.393C132.259 123.332 132.124 123.243 132.01 123.13C131.896 123.017 131.805 122.883 131.742 122.735C131.68 122.587 131.647 122.428 131.647 122.267C131.646 122.107 131.676 121.947 131.737 121.799C131.798 121.65 131.887 121.514 132 121.4C136.337 117.066 142.218 114.631 148.35 114.631C154.482 114.631 160.363 117.066 164.7 121.4C164.87 121.569 164.987 121.784 165.034 122.019C165.082 122.254 165.059 122.498 164.968 122.72C164.877 122.941 164.722 123.131 164.523 123.265C164.324 123.398 164.09 123.47 163.85 123.47H163.87Z" fill="url(#paint97_linear_1373_1314)"/>
<path d="M148.37 148.31V185.5" stroke="url(#paint98_linear_1373_1314)" stroke-miterlimit="10" stroke-linecap="round"/>
<defs>
<linearGradient id="paint0_linear_1373_1314" x1="194.66" y1="316.02" x2="540" y2="316.02" gradientUnits="userSpaceOnUse">
<stop stop-color="#1B46AE" stop-opacity="0"/>
<stop offset="1" stop-color="#11ADCF" stop-opacity="0.4"/>
</linearGradient>
<linearGradient id="paint1_linear_1373_1314" x1="1.86623e-07" y1="423.2" x2="206.2" y2="423.2" gradientUnits="userSpaceOnUse">
<stop stop-color="#1B46AE" stop-opacity="0"/>
<stop offset="1" stop-color="#11ADCF" stop-opacity="0.4"/>
</linearGradient>
<linearGradient id="paint2_linear_1373_1314" x1="29.44" y1="191.8" x2="113.53" y2="337.45" gradientUnits="userSpaceOnUse">
<stop stop-color="#1B46AE" stop-opacity="0"/>
<stop offset="1" stop-color="#11ADCF" stop-opacity="0.4"/>
</linearGradient>
<linearGradient id="paint3_linear_1373_1314" x1="288.01" y1="205.18" x2="417.98" y2="205.18" gradientUnits="userSpaceOnUse">
<stop stop-color="#3D147D"/>
<stop offset="1" stop-color="#083194"/>
</linearGradient>
<linearGradient id="paint4_linear_1373_1314" x1="288.54" y1="100.57" x2="417.98" y2="100.57" gradientUnits="userSpaceOnUse">
<stop stop-color="#532797"/>
<stop offset="1" stop-color="#1B46AE"/>
</linearGradient>
<linearGradient id="paint5_linear_1373_1314" x1="381.94" y1="353.61" x2="452.07" y2="353.61" gradientUnits="userSpaceOnUse">
<stop stop-color="#3D147D"/>
<stop offset="1" stop-color="#083194"/>
</linearGradient>
<linearGradient id="paint6_linear_1373_1314" x1="382.01" y1="333.9" x2="452.07" y2="333.9" gradientUnits="userSpaceOnUse">
<stop stop-color="#532797"/>
<stop offset="1" stop-color="#1B46AE"/>
</linearGradient>
<linearGradient id="paint7_linear_1373_1314" x1="189.56" y1="178.63" x2="275.21" y2="178.63" gradientUnits="userSpaceOnUse">
<stop stop-color="#3D147D"/>
<stop offset="1" stop-color="#083194"/>
</linearGradient>
<linearGradient id="paint8_linear_1373_1314" x1="189.81" y1="121.43" x2="275.21" y2="121.43" gradientUnits="userSpaceOnUse">
<stop stop-color="#532797"/>
<stop offset="1" stop-color="#1B46AE"/>
</linearGradient>
<linearGradient id="paint9_linear_1373_1314" x1="200.58" y1="121.43" x2="264.45" y2="121.43" gradientUnits="userSpaceOnUse">
<stop stop-color="#532797"/>
<stop offset="1" stop-color="#345FC7"/>
</linearGradient>
<linearGradient id="paint10_linear_1373_1314" x1="196.93" y1="135.45" x2="224.8" y2="221.89" gradientUnits="userSpaceOnUse">
<stop stop-color="#11ADCF"/>
<stop offset="1" stop-color="#1B46AE"/>
</linearGradient>
<linearGradient id="paint11_linear_1373_1314" x1="205.14" y1="132.8" x2="233.02" y2="219.24" gradientUnits="userSpaceOnUse">
<stop stop-color="#11ADCF"/>
<stop offset="1" stop-color="#1B46AE"/>
</linearGradient>
<linearGradient id="paint12_linear_1373_1314" x1="213.36" y1="130.15" x2="241.23" y2="216.59" gradientUnits="userSpaceOnUse">
<stop stop-color="#11ADCF"/>
<stop offset="1" stop-color="#1B46AE"/>
</linearGradient>
<linearGradient id="paint13_linear_1373_1314" x1="185.53" y1="139.13" x2="213.4" y2="225.56" gradientUnits="userSpaceOnUse">
<stop stop-color="#11ADCF"/>
<stop offset="1" stop-color="#1B46AE"/>
</linearGradient>
<linearGradient id="paint14_linear_1373_1314" x1="193.74" y1="136.48" x2="221.62" y2="222.92" gradientUnits="userSpaceOnUse">
<stop stop-color="#11ADCF"/>
<stop offset="1" stop-color="#1B46AE"/>
</linearGradient>
<linearGradient id="paint15_linear_1373_1314" x1="201.96" y1="133.83" x2="229.83" y2="220.27" gradientUnits="userSpaceOnUse">
<stop stop-color="#11ADCF"/>
<stop offset="1" stop-color="#1B46AE"/>
</linearGradient>
<linearGradient id="paint16_linear_1373_1314" x1="179.83" y1="140.96" x2="207.7" y2="227.4" gradientUnits="userSpaceOnUse">
<stop stop-color="#11ADCF"/>
<stop offset="1" stop-color="#1B46AE"/>
</linearGradient>
<linearGradient id="paint17_linear_1373_1314" x1="188.04" y1="138.31" x2="215.92" y2="224.75" gradientUnits="userSpaceOnUse">
<stop stop-color="#11ADCF"/>
<stop offset="1" stop-color="#1B46AE"/>
</linearGradient>
<linearGradient id="paint18_linear_1373_1314" x1="196.26" y1="135.66" x2="224.13" y2="222.1" gradientUnits="userSpaceOnUse">
<stop stop-color="#11ADCF"/>
<stop offset="1" stop-color="#1B46AE"/>
</linearGradient>
<linearGradient id="paint19_linear_1373_1314" x1="191.19" y1="137.3" x2="219.06" y2="223.74" gradientUnits="userSpaceOnUse">
<stop stop-color="#11ADCF"/>
<stop offset="1" stop-color="#1B46AE"/>
</linearGradient>
<linearGradient id="paint20_linear_1373_1314" x1="199.4" y1="134.65" x2="227.28" y2="221.09" gradientUnits="userSpaceOnUse">
<stop stop-color="#11ADCF"/>
<stop offset="1" stop-color="#1B46AE"/>
</linearGradient>
<linearGradient id="paint21_linear_1373_1314" x1="207.62" y1="132" x2="235.49" y2="218.44" gradientUnits="userSpaceOnUse">
<stop stop-color="#11ADCF"/>
<stop offset="1" stop-color="#1B46AE"/>
</linearGradient>
<linearGradient id="paint22_linear_1373_1314" x1="269.9" y1="135.92" x2="241.46" y2="222.36" gradientUnits="userSpaceOnUse">
<stop stop-color="#11ADCF"/>
<stop offset="1" stop-color="#1B46AE"/>
</linearGradient>
<linearGradient id="paint23_linear_1373_1314" x1="261.75" y1="133.24" x2="233.31" y2="219.68" gradientUnits="userSpaceOnUse">
<stop stop-color="#11ADCF"/>
<stop offset="1" stop-color="#1B46AE"/>
</linearGradient>
<linearGradient id="paint24_linear_1373_1314" x1="253.6" y1="130.56" x2="225.17" y2="217" gradientUnits="userSpaceOnUse">
<stop stop-color="#11ADCF"/>
<stop offset="1" stop-color="#1B46AE"/>
</linearGradient>
<linearGradient id="paint25_linear_1373_1314" x1="281.48" y1="139.73" x2="253.05" y2="226.17" gradientUnits="userSpaceOnUse">
<stop stop-color="#11ADCF"/>
<stop offset="1" stop-color="#1B46AE"/>
</linearGradient>
<linearGradient id="paint26_linear_1373_1314" x1="273.33" y1="137.07" x2="244.9" y2="223.51" gradientUnits="userSpaceOnUse">
<stop stop-color="#11ADCF"/>
<stop offset="1" stop-color="#1B46AE"/>
</linearGradient>
<linearGradient id="paint27_linear_1373_1314" x1="265.19" y1="134.37" x2="236.75" y2="220.81" gradientUnits="userSpaceOnUse">
<stop stop-color="#11ADCF"/>
<stop offset="1" stop-color="#1B46AE"/>
</linearGradient>
<linearGradient id="paint28_linear_1373_1314" x1="287.28" y1="141.64" x2="258.84" y2="228.08" gradientUnits="userSpaceOnUse">
<stop stop-color="#11ADCF"/>
<stop offset="1" stop-color="#1B46AE"/>
</linearGradient>
<linearGradient id="paint29_linear_1373_1314" x1="279.13" y1="138.96" x2="250.69" y2="225.4" gradientUnits="userSpaceOnUse">
<stop stop-color="#11ADCF"/>
<stop offset="1" stop-color="#1B46AE"/>
</linearGradient>
<linearGradient id="paint30_linear_1373_1314" x1="270.98" y1="136.28" x2="242.54" y2="222.72" gradientUnits="userSpaceOnUse">
<stop stop-color="#11ADCF"/>
<stop offset="1" stop-color="#1B46AE"/>
</linearGradient>
<linearGradient id="paint31_linear_1373_1314" x1="275.73" y1="137.84" x2="247.29" y2="224.28" gradientUnits="userSpaceOnUse">
<stop stop-color="#11ADCF"/>
<stop offset="1" stop-color="#1B46AE"/>
</linearGradient>
<linearGradient id="paint32_linear_1373_1314" x1="267.58" y1="135.16" x2="239.15" y2="221.6" gradientUnits="userSpaceOnUse">
<stop stop-color="#11ADCF"/>
<stop offset="1" stop-color="#1B46AE"/>
</linearGradient>
<linearGradient id="paint33_linear_1373_1314" x1="259.44" y1="132.48" x2="231" y2="218.92" gradientUnits="userSpaceOnUse">
<stop stop-color="#11ADCF"/>
<stop offset="1" stop-color="#1B46AE"/>
</linearGradient>
<linearGradient id="paint34_linear_1373_1314" x1="118.46" y1="297.68" x2="264.84" y2="297.68" gradientUnits="userSpaceOnUse">
<stop stop-color="#3D147D"/>
<stop offset="1" stop-color="#083194"/>
</linearGradient>
<linearGradient id="paint35_linear_1373_1314" x1="118.8" y1="218.83" x2="264.84" y2="218.83" gradientUnits="userSpaceOnUse">
<stop stop-color="#532797"/>
<stop offset="1" stop-color="#1B46AE"/>
</linearGradient>
<linearGradient id="paint36_linear_1373_1314" x1="128.28" y1="214.21" x2="180.28" y2="214.21" gradientUnits="userSpaceOnUse">
<stop stop-color="#532797"/>
<stop offset="1" stop-color="#345FC7"/>
</linearGradient>
<linearGradient id="paint37_linear_1373_1314" x1="241.89" y1="241.64" x2="213.74" y2="356.24" gradientUnits="userSpaceOnUse">
<stop stop-color="#11ADCF"/>
<stop offset="1" stop-color="#1B46AE"/>
</linearGradient>
<linearGradient id="paint38_linear_1373_1314" x1="247.24" y1="242.96" x2="219.09" y2="357.55" gradientUnits="userSpaceOnUse">
<stop stop-color="#11ADCF"/>
<stop offset="1" stop-color="#1B46AE"/>
</linearGradient>
<linearGradient id="paint39_linear_1373_1314" x1="252.6" y1="244.27" x2="224.44" y2="358.87" gradientUnits="userSpaceOnUse">
<stop stop-color="#11ADCF"/>
<stop offset="1" stop-color="#1B46AE"/>
</linearGradient>
<linearGradient id="paint40_linear_1373_1314" x1="263.3" y1="246.9" x2="235.14" y2="361.5" gradientUnits="userSpaceOnUse">
<stop stop-color="#11ADCF"/>
<stop offset="1" stop-color="#1B46AE"/>
</linearGradient>
<linearGradient id="paint41_linear_1373_1314" x1="257.95" y1="245.59" x2="229.79" y2="360.18" gradientUnits="userSpaceOnUse">
<stop stop-color="#11ADCF"/>
<stop offset="1" stop-color="#1B46AE"/>
</linearGradient>
<linearGradient id="paint42_linear_1373_1314" x1="237.62" y1="366.93" x2="368.03" y2="366.93" gradientUnits="userSpaceOnUse">
<stop stop-color="#3D147D"/>
<stop offset="1" stop-color="#083194"/>
</linearGradient>
<linearGradient id="paint43_linear_1373_1314" x1="237.91" y1="296.74" x2="368.03" y2="296.74" gradientUnits="userSpaceOnUse">
<stop stop-color="#532797"/>
<stop offset="1" stop-color="#1B46AE"/>
</linearGradient>
<linearGradient id="paint44_linear_1373_1314" x1="258.23" y1="298.94" x2="347.52" y2="298.94" gradientUnits="userSpaceOnUse">
<stop stop-color="#3D147D"/>
<stop offset="1" stop-color="#083194"/>
</linearGradient>
<linearGradient id="paint45_linear_1373_1314" x1="315.49" y1="280.52" x2="330.38" y2="306.3" gradientUnits="userSpaceOnUse">
<stop stop-color="#167ABF"/>
<stop offset="1" stop-color="#1B46AE"/>
</linearGradient>
<linearGradient id="paint46_linear_1373_1314" x1="258.44" y1="269" x2="307.26" y2="317.81" gradientUnits="userSpaceOnUse">
<stop stop-color="#11ADCF"/>
<stop offset="1" stop-color="#1679BE"/>
</linearGradient>
<linearGradient id="paint47_linear_1373_1314" x1="254.82" y1="274.63" x2="350.82" y2="274.63" gradientUnits="userSpaceOnUse">
<stop stop-color="#3D147D"/>
<stop offset="1" stop-color="#083194"/>
</linearGradient>
<linearGradient id="paint48_linear_1373_1314" x1="254.94" y1="239.54" x2="350.82" y2="239.54" gradientUnits="userSpaceOnUse">
<stop stop-color="#532797"/>
<stop offset="1" stop-color="#1B46AE"/>
</linearGradient>
<linearGradient id="paint49_linear_1373_1314" x1="267.74" y1="239.54" x2="338.02" y2="239.54" gradientUnits="userSpaceOnUse">
<stop stop-color="#532797"/>
<stop offset="1" stop-color="#345FC7"/>
</linearGradient>
<linearGradient id="paint50_linear_1373_1314" x1="300.36" y1="183.04" x2="305.28" y2="187.96" gradientUnits="userSpaceOnUse">
<stop stop-color="#532797"/>
<stop offset="1" stop-color="#1B46AE"/>
</linearGradient>
<linearGradient id="paint51_linear_1373_1314" x1="302.82" y1="161.62" x2="302.82" y2="179.92" gradientUnits="userSpaceOnUse">
<stop stop-color="#11ADCF"/>
<stop offset="1" stop-color="#1B46AE"/>
</linearGradient>
<linearGradient id="paint52_linear_1373_1314" x1="302.82" y1="161.62" x2="302.82" y2="179.92" gradientUnits="userSpaceOnUse">
<stop stop-color="#11ADCF"/>
<stop offset="1" stop-color="#1B46AE"/>
</linearGradient>
<linearGradient id="paint53_linear_1373_1314" x1="302.82" y1="161.62" x2="302.82" y2="179.92" gradientUnits="userSpaceOnUse">
<stop stop-color="#11ADCF"/>
<stop offset="1" stop-color="#1B46AE"/>
</linearGradient>
<linearGradient id="paint54_linear_1373_1314" x1="-nan" y1="-nan" x2="-nan" y2="-nan" gradientUnits="userSpaceOnUse">
<stop stop-color="#11ADCF"/>
<stop offset="1" stop-color="#1B46AE"/>
</linearGradient>
<linearGradient id="paint55_linear_1373_1314" x1="130.03" y1="207.84" x2="178.46" y2="207.84" gradientUnits="userSpaceOnUse">
<stop stop-color="#3D147D"/>
<stop offset="1" stop-color="#083194"/>
</linearGradient>
<linearGradient id="paint56_linear_1373_1314" x1="130.1" y1="189.76" x2="178.46" y2="189.76" gradientUnits="userSpaceOnUse">
<stop stop-color="#532797"/>
<stop offset="1" stop-color="#1B46AE"/>
</linearGradient>
<linearGradient id="paint57_linear_1373_1314" x1="390.96" y1="66.56" x2="395.88" y2="71.47" gradientUnits="userSpaceOnUse">
<stop stop-color="#532797"/>
<stop offset="1" stop-color="#1B46AE"/>
</linearGradient>
<linearGradient id="paint58_linear_1373_1314" x1="393.42" y1="45.1301" x2="393.42" y2="63.4301" gradientUnits="userSpaceOnUse">
<stop stop-color="#11ADCF"/>
<stop offset="1" stop-color="#1B46AE"/>
</linearGradient>
<linearGradient id="paint59_linear_1373_1314" x1="393.42" y1="45.13" x2="393.42" y2="63.43" gradientUnits="userSpaceOnUse">
<stop stop-color="#11ADCF"/>
<stop offset="1" stop-color="#1B46AE"/>
</linearGradient>
<linearGradient id="paint60_linear_1373_1314" x1="393.42" y1="45.1299" x2="393.42" y2="63.4299" gradientUnits="userSpaceOnUse">
<stop stop-color="#11ADCF"/>
<stop offset="1" stop-color="#1B46AE"/>
</linearGradient>
<linearGradient id="paint61_linear_1373_1314" x1="-nan" y1="-nan" x2="-nan" y2="-nan" gradientUnits="userSpaceOnUse">
<stop stop-color="#11ADCF"/>
<stop offset="1" stop-color="#1B46AE"/>
</linearGradient>
<linearGradient id="paint62_linear_1373_1314" x1="229.92" y1="66.56" x2="234.84" y2="71.47" gradientUnits="userSpaceOnUse">
<stop stop-color="#532797"/>
<stop offset="1" stop-color="#1B46AE"/>
</linearGradient>
<linearGradient id="paint63_linear_1373_1314" x1="232.38" y1="45.13" x2="232.38" y2="63.43" gradientUnits="userSpaceOnUse">
<stop stop-color="#11ADCF"/>
<stop offset="1" stop-color="#1B46AE"/>
</linearGradient>
<linearGradient id="paint64_linear_1373_1314" x1="232.38" y1="45.1299" x2="232.38" y2="63.4299" gradientUnits="userSpaceOnUse">
<stop stop-color="#11ADCF"/>
<stop offset="1" stop-color="#1B46AE"/>
</linearGradient>
<linearGradient id="paint65_linear_1373_1314" x1="232.38" y1="45.1301" x2="232.38" y2="63.4301" gradientUnits="userSpaceOnUse">
<stop stop-color="#11ADCF"/>
<stop offset="1" stop-color="#1B46AE"/>
</linearGradient>
<linearGradient id="paint66_linear_1373_1314" x1="-nan" y1="-nan" x2="-nan" y2="-nan" gradientUnits="userSpaceOnUse">
<stop stop-color="#11ADCF"/>
<stop offset="1" stop-color="#1B46AE"/>
</linearGradient>
<linearGradient id="paint67_linear_1373_1314" x1="230.15" y1="389.31" x2="290.08" y2="389.31" gradientUnits="userSpaceOnUse">
<stop stop-color="#3D147D"/>
<stop offset="1" stop-color="#083194"/>
</linearGradient>
<linearGradient id="paint68_linear_1373_1314" x1="254.91" y1="390.48" x2="264.76" y2="373.42" gradientUnits="userSpaceOnUse">
<stop stop-color="#11ADCF"/>
<stop offset="1" stop-color="#1679BE"/>
</linearGradient>
<linearGradient id="paint69_linear_1373_1314" x1="402.25" y1="136.77" x2="379.73" y2="270.79" gradientUnits="userSpaceOnUse">
<stop stop-color="#11ADCF"/>
<stop offset="1" stop-color="#1B46AE"/>
</linearGradient>
<linearGradient id="paint70_linear_1373_1314" x1="405.38" y1="137.3" x2="382.85" y2="271.32" gradientUnits="userSpaceOnUse">
<stop stop-color="#11ADCF"/>
<stop offset="1" stop-color="#1B46AE"/>
</linearGradient>
<linearGradient id="paint71_linear_1373_1314" x1="408.5" y1="137.82" x2="385.98" y2="271.85" gradientUnits="userSpaceOnUse">
<stop stop-color="#11ADCF"/>
<stop offset="1" stop-color="#1B46AE"/>
</linearGradient>
<linearGradient id="paint72_linear_1373_1314" x1="414.75" y1="138.87" x2="392.23" y2="272.9" gradientUnits="userSpaceOnUse">
<stop stop-color="#11ADCF"/>
<stop offset="1" stop-color="#1B46AE"/>
</linearGradient>
<linearGradient id="paint73_linear_1373_1314" x1="411.63" y1="138.35" x2="389.1" y2="272.37" gradientUnits="userSpaceOnUse">
<stop stop-color="#11ADCF"/>
<stop offset="1" stop-color="#1B46AE"/>
</linearGradient>
<linearGradient id="paint74_linear_1373_1314" x1="417.88" y1="139.4" x2="395.36" y2="273.42" gradientUnits="userSpaceOnUse">
<stop stop-color="#11ADCF"/>
<stop offset="1" stop-color="#1B46AE"/>
</linearGradient>
<linearGradient id="paint75_linear_1373_1314" x1="421.01" y1="139.92" x2="398.48" y2="273.95" gradientUnits="userSpaceOnUse">
<stop stop-color="#11ADCF"/>
<stop offset="1" stop-color="#1B46AE"/>
</linearGradient>
<linearGradient id="paint76_linear_1373_1314" x1="129.84" y1="243.82" x2="158.46" y2="243.82" gradientUnits="userSpaceOnUse">
<stop stop-color="#11ADCF"/>
<stop offset="1" stop-color="#1B46AE"/>
</linearGradient>
<linearGradient id="paint77_linear_1373_1314" x1="129.77" y1="266.65" x2="158.4" y2="266.65" gradientUnits="userSpaceOnUse">
<stop stop-color="#11ADCF"/>
<stop offset="1" stop-color="#1B46AE"/>
</linearGradient>
<linearGradient id="paint78_linear_1373_1314" x1="129.71" y1="289.48" x2="158.34" y2="289.48" gradientUnits="userSpaceOnUse">
<stop stop-color="#11ADCF"/>
<stop offset="1" stop-color="#1B46AE"/>
</linearGradient>
<linearGradient id="paint79_linear_1373_1314" x1="129.58" y1="335.14" x2="158.21" y2="335.14" gradientUnits="userSpaceOnUse">
<stop stop-color="#11ADCF"/>
<stop offset="1" stop-color="#1B46AE"/>
</linearGradient>
<linearGradient id="paint80_linear_1373_1314" x1="129.64" y1="312.31" x2="158.27" y2="312.31" gradientUnits="userSpaceOnUse">
<stop stop-color="#11ADCF"/>
<stop offset="1" stop-color="#1B46AE"/>
</linearGradient>
<linearGradient id="paint81_linear_1373_1314" x1="247.87" y1="318.85" x2="287.01" y2="379.67" gradientUnits="userSpaceOnUse">
<stop stop-color="#11ADCF"/>
<stop offset="1" stop-color="#1B46AE"/>
</linearGradient>
<linearGradient id="paint82_linear_1373_1314" x1="254.8" y1="314.39" x2="293.94" y2="375.2" gradientUnits="userSpaceOnUse">
<stop stop-color="#11ADCF"/>
<stop offset="1" stop-color="#1B46AE"/>
</linearGradient>
<linearGradient id="paint83_linear_1373_1314" x1="261.74" y1="309.93" x2="300.87" y2="370.74" gradientUnits="userSpaceOnUse">
<stop stop-color="#11ADCF"/>
<stop offset="1" stop-color="#1B46AE"/>
</linearGradient>
<linearGradient id="paint84_linear_1373_1314" x1="237.94" y1="325.24" x2="277.08" y2="386.05" gradientUnits="userSpaceOnUse">
<stop stop-color="#11ADCF"/>
<stop offset="1" stop-color="#1B46AE"/>
</linearGradient>
<linearGradient id="paint85_linear_1373_1314" x1="244.88" y1="320.78" x2="284.01" y2="381.59" gradientUnits="userSpaceOnUse">
<stop stop-color="#11ADCF"/>
<stop offset="1" stop-color="#1B46AE"/>
</linearGradient>
<linearGradient id="paint86_linear_1373_1314" x1="251.81" y1="316.31" x2="290.95" y2="377.13" gradientUnits="userSpaceOnUse">
<stop stop-color="#11ADCF"/>
<stop offset="1" stop-color="#1B46AE"/>
</linearGradient>
<linearGradient id="paint87_linear_1373_1314" x1="314.77" y1="384.22" x2="355.03" y2="398.86" gradientUnits="userSpaceOnUse">
<stop stop-color="#11ADCF"/>
<stop offset="1" stop-color="#1B46AE"/>
</linearGradient>
<linearGradient id="paint88_linear_1373_1314" x1="319.48" y1="371.26" x2="359.74" y2="385.9" gradientUnits="userSpaceOnUse">
<stop stop-color="#11ADCF"/>
<stop offset="1" stop-color="#1B46AE"/>
</linearGradient>
<linearGradient id="paint89_linear_1373_1314" x1="324.199" y1="358.29" x2="364.46" y2="372.93" gradientUnits="userSpaceOnUse">
<stop stop-color="#11ADCF"/>
<stop offset="1" stop-color="#1B46AE"/>
</linearGradient>
<linearGradient id="paint90_linear_1373_1314" x1="307.8" y1="403.38" x2="348.06" y2="418.02" gradientUnits="userSpaceOnUse">
<stop stop-color="#11ADCF"/>
<stop offset="1" stop-color="#1B46AE"/>
</linearGradient>
<linearGradient id="paint91_linear_1373_1314" x1="312.521" y1="390.41" x2="352.78" y2="405.05" gradientUnits="userSpaceOnUse">
<stop stop-color="#11ADCF"/>
<stop offset="1" stop-color="#1B46AE"/>
</linearGradient>
<linearGradient id="paint92_linear_1373_1314" x1="317.23" y1="377.44" x2="357.49" y2="392.09" gradientUnits="userSpaceOnUse">
<stop stop-color="#11ADCF"/>
<stop offset="1" stop-color="#1B46AE"/>
</linearGradient>
<linearGradient id="paint93_linear_1373_1314" x1="155.66" y1="267.79" x2="203.67" y2="350.94" gradientUnits="userSpaceOnUse">
<stop stop-color="#11ADCF"/>
<stop offset="1" stop-color="#1B46AE"/>
</linearGradient>
<linearGradient id="paint94_linear_1373_1314" x1="145.92" y1="136.04" x2="150.83" y2="140.95" gradientUnits="userSpaceOnUse">
<stop stop-color="#532797"/>
<stop offset="1" stop-color="#1B46AE"/>
</linearGradient>
<linearGradient id="paint95_linear_1373_1314" x1="148.37" y1="114.61" x2="148.37" y2="132.91" gradientUnits="userSpaceOnUse">
<stop stop-color="#11ADCF"/>
<stop offset="1" stop-color="#1B46AE"/>
</linearGradient>
<linearGradient id="paint96_linear_1373_1314" x1="148.37" y1="114.61" x2="148.37" y2="132.91" gradientUnits="userSpaceOnUse">
<stop stop-color="#11ADCF"/>
<stop offset="1" stop-color="#1B46AE"/>
</linearGradient>
<linearGradient id="paint97_linear_1373_1314" x1="148.37" y1="114.61" x2="148.37" y2="132.91" gradientUnits="userSpaceOnUse">
<stop stop-color="#11ADCF"/>
<stop offset="1" stop-color="#1B46AE"/>
</linearGradient>
<linearGradient id="paint98_linear_1373_1314" x1="-nan" y1="-nan" x2="-nan" y2="-nan" gradientUnits="userSpaceOnUse">
<stop stop-color="#11ADCF"/>
<stop offset="1" stop-color="#1B46AE"/>
</linearGradient>
</defs>
</svg>
