<svg width="100%" viewBox="0 0 100 100" fill="none" xmlns="http://www.w3.org/2000/svg">
<path d="M72.9802 59.3246V80.2096C72.9802 81.5357 72.4534 82.8075 71.5157 83.7452C70.578 84.6829 69.3062 85.2096 67.9802 85.2096H56.6502V69.6071C56.6502 68.2811 56.1234 67.0093 55.1857 66.0716C54.248 65.1339 52.9762 64.6071 51.6502 64.6071H44.7502C43.4241 64.6071 42.1523 65.1339 41.2146 66.0716C40.2769 67.0093 39.7502 68.2811 39.7502 69.6071V85.2096H28.2852C26.9591 85.2096 25.6873 84.6829 24.7496 83.7452C23.8119 82.8075 23.2852 81.5357 23.2852 80.2096V59.3246L48.1327 41.0146L72.9802 59.3246Z" fill="url(#paint0_linear_1351_2440)"/>
<path d="M77.0579 54.2026L69.3879 48.5501V38.1126C69.3879 37.5822 69.1771 37.0735 68.8021 36.6984C68.427 36.3233 67.9183 36.1126 67.3879 36.1126C66.8574 36.1126 66.3487 36.3233 65.9736 36.6984C65.5986 37.0735 65.3879 37.5822 65.3879 38.1126V45.6126L49.3204 33.7726C48.9767 33.5194 48.561 33.3828 48.1341 33.3828C47.7072 33.3828 47.2915 33.5194 46.9479 33.7726L19.1979 54.2126C18.9863 54.3685 18.8075 54.5646 18.6717 54.7897C18.5358 55.0147 18.4457 55.2643 18.4063 55.5242C18.367 55.7841 18.3792 56.0492 18.4423 56.3043C18.5054 56.5595 18.6182 56.7997 18.7741 57.0113C18.9301 57.2229 19.1261 57.4017 19.3512 57.5375C19.5762 57.6734 19.8258 57.7635 20.0857 57.8029C20.3456 57.8422 20.6107 57.83 20.8659 57.7669C21.121 57.7038 21.3613 57.591 21.5729 57.4351L48.1229 37.8676L74.6854 57.4251C75.1127 57.7397 75.6475 57.8717 76.1721 57.792C76.6968 57.7123 77.1682 57.4274 77.4829 57.0001C77.7975 56.5728 77.9294 56.038 77.8497 55.5133C77.77 54.9887 77.4852 54.5172 77.0579 54.2026Z" fill="url(#paint1_linear_1351_2440)"/>
<path d="M67.3874 33.3745C69.3025 33.3745 70.8549 31.822 70.8549 29.907C70.8549 27.9919 69.3025 26.4395 67.3874 26.4395C65.4724 26.4395 63.9199 27.9919 63.9199 29.907C63.9199 31.822 65.4724 33.3745 67.3874 33.3745Z" fill="url(#paint2_radial_1351_2440)"/>
<g opacity="0.4">
<path d="M72.975 24.8749C72.9745 25.0908 72.91 25.3016 72.7898 25.4809C72.6696 25.6602 72.4989 25.7998 72.2994 25.8822C72.0999 25.9646 71.8804 25.986 71.6687 25.9438C71.457 25.9015 71.2626 25.7975 71.11 25.6449C70.6212 25.1558 70.0409 24.7679 69.4022 24.5032C68.7635 24.2385 68.0789 24.1022 67.3875 24.1022C66.6961 24.1022 66.0114 24.2385 65.3727 24.5032C64.734 24.7679 64.1537 25.1558 63.665 25.6449C63.4601 25.8501 63.1821 25.9655 62.8921 25.9658C62.6021 25.966 62.3239 25.851 62.1187 25.6462C61.9135 25.4413 61.7981 25.1633 61.7979 24.8733C61.7976 24.5833 61.9126 24.3051 62.1175 24.0999C62.8091 23.4076 63.6305 22.8583 64.5345 22.4836C65.4385 22.1089 66.4076 21.916 67.3862 21.916C68.3649 21.916 69.3339 22.1089 70.2379 22.4836C71.142 22.8583 71.9633 23.4076 72.655 24.0999C72.7568 24.2016 72.8375 24.3224 72.8925 24.4554C72.9474 24.5884 72.9754 24.731 72.975 24.8749Z" fill="url(#paint3_linear_1351_2440)"/>
</g>
<g opacity="0.4">
<path d="M76.41 21.4369C76.4107 21.5804 76.3827 21.7227 76.3278 21.8553C76.2729 21.988 76.192 22.1083 76.09 22.2094C75.9887 22.3111 75.8683 22.3918 75.7358 22.4469C75.6032 22.502 75.4611 22.5304 75.3175 22.5304C75.1739 22.5304 75.0318 22.502 74.8992 22.4469C74.7667 22.3918 74.6463 22.3111 74.545 22.2094C72.6463 20.311 70.0712 19.2445 67.3863 19.2445C64.7013 19.2445 62.1263 20.311 60.2275 22.2094C60.0222 22.4122 59.745 22.5255 59.4564 22.5247C59.1678 22.5238 58.8912 22.4088 58.6872 22.2047C58.4831 22.0006 58.3681 21.7241 58.3672 21.4355C58.3663 21.1469 58.4797 20.8697 58.6825 20.6644C60.991 18.3562 64.1218 17.0596 67.3863 17.0596C70.6507 17.0596 73.7815 18.3562 76.09 20.6644C76.192 20.7654 76.2729 20.8857 76.3278 21.0184C76.3827 21.151 76.4107 21.2933 76.41 21.4369Z" fill="url(#paint4_linear_1351_2440)"/>
</g>
<g opacity="0.4">
<path d="M79.7055 18.1448C79.7055 18.3609 79.6414 18.5721 79.5214 18.7517C79.4013 18.9314 79.2307 19.0714 79.0311 19.1541C78.8315 19.2368 78.6118 19.2584 78.3999 19.2163C78.188 19.1741 77.9933 19.0701 77.8405 18.9173C76.468 17.5444 74.8385 16.4553 73.045 15.7123C71.2516 14.9693 69.3293 14.5869 67.388 14.5869C65.4467 14.5869 63.5245 14.9693 61.731 15.7123C59.9375 16.4553 58.308 17.5444 56.9355 18.9173C56.7302 19.1201 56.453 19.2335 56.1644 19.2326C55.8758 19.2317 55.5993 19.1167 55.3952 18.9126C55.1911 18.7085 55.0761 18.432 55.0752 18.1434C55.0743 17.8548 55.1877 17.5776 55.3905 17.3723C56.966 15.7958 58.8367 14.5451 60.8957 13.6919C62.9547 12.8386 65.1617 12.3994 67.3905 12.3994C69.6193 12.3994 71.8263 12.8386 73.8853 13.6919C75.9443 14.5451 77.815 15.7958 79.3905 17.3723C79.4912 17.4741 79.5708 17.5947 79.6248 17.7272C79.6789 17.8597 79.7063 18.0016 79.7055 18.1448Z" fill="url(#paint5_linear_1351_2440)"/>
</g>
<defs>
<linearGradient id="paint0_linear_1351_2440" x1="-19.9348" y1="63.1121" x2="74.2477" y2="63.1121" gradientUnits="userSpaceOnUse">
<stop stop-color="#11ADCF"/>
<stop offset="1" stop-color="#1B46AE"/>
</linearGradient>
<linearGradient id="paint1_linear_1351_2440" x1="18.3954" y1="45.5926" x2="77.8729" y2="45.5926" gradientUnits="userSpaceOnUse">
<stop stop-color="#11ADCF"/>
<stop offset="1" stop-color="#1B46AE"/>
</linearGradient>
<radialGradient id="paint2_radial_1351_2440" cx="0" cy="0" r="1" gradientUnits="userSpaceOnUse" gradientTransform="translate(65.9299 28.8245) scale(5.19 5.19)">
<stop stop-color="#11ADCF"/>
<stop offset="0.5" stop-color="#1B46AE"/>
<stop offset="1" stop-color="#532797"/>
</radialGradient>
<linearGradient id="paint3_linear_1351_2440" x1="61.7975" y1="23.9424" x2="72.975" y2="23.9424" gradientUnits="userSpaceOnUse">
<stop stop-color="#11ADCF"/>
<stop offset="1" stop-color="#1B46AE"/>
</linearGradient>
<linearGradient id="paint4_linear_1351_2440" x1="58.3625" y1="19.7944" x2="76.41" y2="19.7944" gradientUnits="userSpaceOnUse">
<stop stop-color="#11ADCF"/>
<stop offset="1" stop-color="#1B46AE"/>
</linearGradient>
<linearGradient id="paint5_linear_1351_2440" x1="55.0705" y1="15.8198" x2="79.7055" y2="15.8198" gradientUnits="userSpaceOnUse">
<stop stop-color="#11ADCF"/>
<stop offset="1" stop-color="#1B46AE"/>
</linearGradient>
</defs>
</svg>
