<svg width="100%" viewBox="0 0 100 100" fill="none" xmlns="http://www.w3.org/2000/svg">
<path d="M80 0H20C8.95431 0 0 8.9543 0 20V80C0 91.0457 8.9543 100 20 100H80C91.0457 100 100 91.0457 100 80V20C100 8.95431 91.0457 0 80 0Z" fill="url(#paint0_linear_1326_1206)" fill-opacity="0.1"/>
<path d="M72.9802 59.3251V80.2101C72.9802 81.5362 72.4534 82.808 71.5157 83.7457C70.578 84.6834 69.3062 85.2101 67.9802 85.2101H56.6502V69.6076C56.6502 68.2816 56.1234 67.0098 55.1857 66.0721C54.248 65.1344 52.9762 64.6076 51.6502 64.6076H44.7502C43.4241 64.6076 42.1523 65.1344 41.2146 66.0721C40.2769 67.0098 39.7502 68.2816 39.7502 69.6076V85.2101H28.2852C26.9591 85.2101 25.6873 84.6834 24.7496 83.7457C23.8119 82.808 23.2852 81.5362 23.2852 80.2101V59.3251L48.1327 41.0151L72.9802 59.3251Z" fill="#CCCCCC"/>
<path fill-rule="evenodd" clip-rule="evenodd" d="M46.9457 33.7625C47.6512 33.2426 48.613 33.2426 49.3186 33.7624L77.0586 54.2024C77.9478 54.8577 78.1375 56.1097 77.4823 56.999C76.827 57.8882 75.575 58.0779 74.6858 57.4227L48.1322 37.8569L21.5811 57.4226C20.6919 58.0779 19.4399 57.8882 18.7846 56.999C18.1293 56.1098 18.319 54.8578 19.2082 54.2025L46.9457 33.7625Z" fill="#CCCCCC"/>
<path fill-rule="evenodd" clip-rule="evenodd" d="M67.3877 36.1123C68.4923 36.1123 69.3877 37.0077 69.3877 38.1123V49.5598C69.3877 50.6644 68.4923 51.5598 67.3877 51.5598C66.2831 51.5598 65.3877 50.6644 65.3877 49.5598V38.1123C65.3877 37.0077 66.2831 36.1123 67.3877 36.1123Z" fill="#CCCCCC"/>
<path d="M67.3874 33.3749C69.3025 33.3749 70.8549 31.8225 70.8549 29.9074C70.8549 27.9924 69.3025 26.4399 67.3874 26.4399C65.4724 26.4399 63.9199 27.9924 63.9199 29.9074C63.9199 31.8225 65.4724 33.3749 67.3874 33.3749Z" fill="#CCCCCC"/>
<path d="M72.975 24.8749C72.9745 25.0908 72.91 25.3016 72.7898 25.4809C72.6696 25.6602 72.4989 25.7998 72.2994 25.8822C72.0999 25.9646 71.8804 25.986 71.6687 25.9438C71.457 25.9015 71.2626 25.7975 71.11 25.6449C70.6212 25.1558 70.0409 24.7679 69.4022 24.5032C68.7635 24.2385 68.0789 24.1022 67.3875 24.1022C66.6961 24.1022 66.0114 24.2385 65.3727 24.5032C64.734 24.7679 64.1537 25.1558 63.665 25.6449C63.4601 25.8501 63.1821 25.9655 62.8921 25.9658C62.6021 25.966 62.3239 25.851 62.1187 25.6462C61.9135 25.4413 61.7981 25.1633 61.7979 24.8733C61.7976 24.5833 61.9126 24.3051 62.1175 24.0999C62.8091 23.4076 63.6305 22.8583 64.5345 22.4836C65.4385 22.1089 66.4076 21.916 67.3862 21.916C68.3649 21.916 69.3339 22.1089 70.2379 22.4836C71.142 22.8583 71.9633 23.4076 72.655 24.0999C72.7568 24.2016 72.8375 24.3224 72.8925 24.4554C72.9474 24.5884 72.9754 24.731 72.975 24.8749V24.8749Z" fill="#CCCCCC"/>
<path d="M76.41 21.4373C76.4107 21.5809 76.3827 21.7232 76.3278 21.8558C76.2729 21.9885 76.192 22.1088 76.09 22.2098C75.9887 22.3116 75.8683 22.3923 75.7358 22.4474C75.6032 22.5025 75.4611 22.5309 75.3175 22.5309C75.1739 22.5309 75.0318 22.5025 74.8992 22.4474C74.7667 22.3923 74.6463 22.3116 74.545 22.2098C72.6463 20.3115 70.0712 19.245 67.3863 19.245C64.7013 19.245 62.1263 20.3115 60.2275 22.2098C60.0222 22.4127 59.745 22.526 59.4564 22.5252C59.1678 22.5243 58.8912 22.4093 58.6872 22.2052C58.4831 22.0011 58.3681 21.7246 58.3672 21.436C58.3663 21.1474 58.4797 20.8701 58.6825 20.6648C60.991 18.3567 64.1218 17.0601 67.3863 17.0601C70.6507 17.0601 73.7815 18.3567 76.09 20.6648C76.192 20.7659 76.2729 20.8862 76.3278 21.0189C76.3827 21.1515 76.4107 21.2938 76.41 21.4373Z" fill="#F2F2F2"/>
<path d="M79.7045 18.1448C79.7045 18.3609 79.6405 18.5721 79.5204 18.7517C79.4004 18.9314 79.2297 19.0714 79.0301 19.1541C78.8305 19.2368 78.6108 19.2584 78.3989 19.2163C78.187 19.1741 77.9923 19.0701 77.8395 18.9173C76.467 17.5444 74.8375 16.4553 73.0441 15.7123C71.2506 14.9693 69.3283 14.5869 67.387 14.5869C65.4458 14.5869 63.5235 14.9693 61.73 15.7123C59.9366 16.4553 58.307 17.5444 56.9345 18.9173C56.7292 19.1201 56.452 19.2335 56.1634 19.2326C55.8748 19.2317 55.5983 19.1167 55.3942 18.9126C55.1901 18.7085 55.0751 18.432 55.0742 18.1434C55.0734 17.8548 55.1867 17.5776 55.3895 17.3723C56.965 15.7958 58.8357 14.5451 60.8948 13.6919C62.9538 12.8386 65.1607 12.3994 67.3895 12.3994C69.6184 12.3994 71.8253 12.8386 73.8843 13.6919C75.9434 14.5451 77.8141 15.7958 79.3895 17.3723C79.4902 17.4741 79.5698 17.5947 79.6239 17.7272C79.6779 17.8597 79.7053 18.0016 79.7045 18.1448V18.1448Z" fill="#F2F2F2"/>
<defs>
<linearGradient id="paint0_linear_1326_1206" x1="50" y1="0" x2="50" y2="100" gradientUnits="userSpaceOnUse">
<stop stop-color="white"/>
<stop offset="1" stop-color="white" stop-opacity="0"/>
</linearGradient>
</defs>
</svg>
