<svg width="100%" viewBox="0 0 100 100" fill="none" xmlns="http://www.w3.org/2000/svg">
<path d="M80 0H20C8.95431 0 0 8.9543 0 20V80C0 91.0457 8.9543 100 20 100H80C91.0457 100 100 91.0457 100 80V20C100 8.95431 91.0457 0 80 0Z" fill="url(#paint0_linear_1326_1221)" fill-opacity="0.1"/>
<path d="M49.9998 43.7077C53.5055 43.7077 56.3473 40.8658 56.3473 37.3602C56.3473 33.8546 53.5055 31.0127 49.9998 31.0127C46.4942 31.0127 43.6523 33.8546 43.6523 37.3602C43.6523 40.8658 46.4942 43.7077 49.9998 43.7077Z" fill="#CCCCCC"/>
<path d="M59.2155 47.5901C58.8194 47.5904 58.4321 47.4731 58.1027 47.2531C57.7734 47.033 57.5168 46.7201 57.3655 46.3541C57.2142 45.988 57.175 45.5853 57.2529 45.1969C57.3308 44.8085 57.5222 44.452 57.803 44.1726C58.6985 43.2782 59.4089 42.2161 59.8936 41.0469C60.3783 39.8778 60.6278 38.6245 60.6278 37.3589C60.6278 36.0932 60.3783 34.84 59.8936 33.6708C59.4089 32.5016 58.6985 31.4395 57.803 30.5451C57.4277 30.1702 57.2167 29.6615 57.2165 29.131C57.2162 28.6005 57.4268 28.0916 57.8017 27.7164C58.1767 27.3411 58.6853 27.1301 59.2158 27.1299C59.7463 27.1296 60.2552 27.3402 60.6305 27.7151C61.8977 28.9814 62.9029 30.4849 63.5888 32.1399C64.2746 33.7948 64.6276 35.5687 64.6276 37.3601C64.6276 39.1515 64.2746 40.9254 63.5888 42.5803C62.9029 44.2353 61.8977 45.7389 60.6305 47.0051C60.4446 47.1908 60.2239 47.338 59.9811 47.4384C59.7384 47.5388 59.4782 47.5903 59.2155 47.5901Z" fill="#CCCCCC"/>
<path d="M65.5 53.8775C65.1045 53.8773 64.7178 53.7598 64.389 53.5399C64.0602 53.32 63.804 53.0075 63.6528 52.6419C63.5016 52.2764 63.4622 51.8742 63.5396 51.4863C63.617 51.0984 63.8077 50.7421 64.0876 50.4625C67.5625 46.9875 69.5147 42.2744 69.5147 37.36C69.5147 32.4456 67.5625 27.7325 64.0876 24.2575C63.9017 24.0719 63.7543 23.8514 63.6537 23.6088C63.553 23.3661 63.5012 23.1061 63.5011 22.8434C63.501 22.5807 63.5526 22.3206 63.653 22.0779C63.7534 21.8352 63.9006 21.6146 64.0863 21.4288C64.272 21.2429 64.4924 21.0955 64.735 20.9949C64.9777 20.8943 65.2377 20.8424 65.5004 20.8423C65.7631 20.8422 66.0232 20.8938 66.2659 20.9942C66.5087 21.0946 66.7292 21.2419 66.9151 21.4275C69.0076 23.5197 70.6675 26.0035 71.7999 28.7373C72.9324 31.471 73.5153 34.401 73.5153 37.36C73.5153 40.319 72.9324 43.2491 71.7999 45.9828C70.6675 48.7165 69.0076 51.2004 66.9151 53.2925C66.7292 53.4782 66.5085 53.6254 66.2658 53.7258C66.023 53.8262 65.7628 53.8777 65.5 53.8775Z" fill="white"/>
<path d="M71.5351 59.9073C71.1409 59.9062 70.7557 59.7885 70.4281 59.5691C70.1006 59.3498 69.8451 59.0385 69.6939 58.6744C69.5427 58.3102 69.5025 57.9096 69.5783 57.5227C69.6542 57.1358 69.8427 56.7799 70.1201 56.4998C75.1944 51.4256 78.045 44.5434 78.045 37.3673C78.045 30.1913 75.1944 23.3091 70.1201 18.2348C69.934 18.049 69.7862 17.8283 69.6854 17.5854C69.5845 17.3425 69.5325 17.0821 69.5322 16.8191C69.532 16.5561 69.5836 16.2956 69.684 16.0525C69.7845 15.8094 69.9318 15.5885 70.1176 15.4023C70.3034 15.2162 70.5241 15.0685 70.767 14.9676C71.0099 14.8667 71.2703 14.8147 71.5333 14.8145C71.7964 14.8142 72.0569 14.8658 72.2999 14.9662C72.543 15.0667 72.764 15.214 72.9501 15.3998C75.8341 18.2836 78.1218 21.7072 79.6826 25.4751C81.2434 29.243 82.0467 33.2814 82.0467 37.3598C82.0467 41.4382 81.2434 45.4767 79.6826 49.2446C78.1218 53.0125 75.8341 56.4361 72.9501 59.3198C72.765 59.5067 72.5446 59.6549 72.3017 59.7558C72.0587 59.8567 71.7981 59.9082 71.5351 59.9073V59.9073Z" fill="#F2F2F2"/>
<path d="M40.7828 47.5898C40.2531 47.5896 39.7451 47.3792 39.3703 47.0048C38.1028 45.7387 37.0973 44.2352 36.4112 42.5803C35.7252 40.9253 35.3721 39.1514 35.3721 37.3598C35.3721 35.5683 35.7252 33.7944 36.4112 32.1394C37.0973 30.4844 38.1028 28.9809 39.3703 27.7148C39.7459 27.3402 40.255 27.1302 40.7855 27.1309C41.316 27.1316 41.8244 27.343 42.1991 27.7186C42.5737 28.0942 42.7837 28.6032 42.783 29.1337C42.7823 29.6642 42.5709 30.1727 42.1953 30.5473C41.2998 31.4417 40.5894 32.5039 40.1046 33.673C39.6199 34.8422 39.3704 36.0954 39.3704 37.3611C39.3704 38.6267 39.6199 39.88 40.1046 41.0491C40.5894 42.2183 41.2998 43.2805 42.1953 44.1748C42.4753 44.4546 42.6661 44.8111 42.7434 45.1992C42.8207 45.5874 42.7811 45.9898 42.6296 46.3554C42.478 46.7211 42.2215 47.0335 41.8923 47.2533C41.5631 47.473 41.1761 47.5902 40.7803 47.5898H40.7828Z" fill="#CCCCCC"/>
<path d="M34.4996 53.8773C34.2369 53.8775 33.9767 53.826 33.7339 53.7256C33.4912 53.6252 33.2705 53.478 33.0846 53.2923C30.9921 51.2002 29.3322 48.7163 28.1997 45.9826C27.0673 43.2489 26.4844 40.3188 26.4844 37.3598C26.4844 34.4008 27.0673 31.4708 28.1997 28.7371C29.3322 26.0033 30.9921 23.5195 33.0846 21.4273C33.2651 21.2218 33.4859 21.0555 33.7332 20.9386C33.9806 20.8218 34.2493 20.757 34.5227 20.7481C34.7961 20.7393 35.0684 20.7866 35.3228 20.8872C35.5771 20.9877 35.8082 21.1394 36.0016 21.3329C36.195 21.5263 36.3467 21.7573 36.4473 22.0117C36.5479 22.2661 36.5952 22.5384 36.5864 22.8118C36.5775 23.0852 36.5127 23.3539 36.3958 23.6012C36.279 23.8486 36.1127 24.0693 35.9071 24.2498C34.1859 25.9702 32.8205 28.0128 31.889 30.2609C30.9574 32.5091 30.4779 34.9188 30.4779 37.3523C30.4779 39.7859 30.9574 42.1956 31.889 44.4437C32.8205 46.6919 34.1859 48.7345 35.9071 50.4548C36.1893 50.7337 36.3822 51.0902 36.4612 51.4789C36.5402 51.8677 36.5018 52.2711 36.351 52.638C36.2001 53.0049 35.9435 53.3186 35.6138 53.5393C35.2842 53.76 34.8963 53.8776 34.4996 53.8773V53.8773Z" fill="#F2F2F2"/>
<path d="M28.4652 59.9073C28.2026 59.9078 27.9425 59.8561 27.7 59.7553C27.4575 59.6544 27.2375 59.5064 27.0527 59.3198C24.1685 56.4362 21.8805 53.0127 20.3195 49.2448C18.7585 45.4768 17.9551 41.4383 17.9551 37.3598C17.9551 33.2813 18.7585 29.2428 20.3195 25.4748C21.8805 21.7069 24.1685 18.2834 27.0527 15.3998C27.2366 15.2063 27.4573 15.0515 27.702 14.9446C27.9466 14.8377 28.2101 14.7809 28.4771 14.7775C28.744 14.7741 29.0089 14.8241 29.2562 14.9247C29.5035 15.0253 29.7281 15.1744 29.9169 15.3631C30.1056 15.5519 30.2547 15.7765 30.3553 16.0238C30.4559 16.2711 30.5059 16.536 30.5025 16.8029C30.4991 17.0699 30.4423 17.3334 30.3354 17.5781C30.2285 17.8227 30.0737 18.0434 29.8802 18.2273C24.806 23.3016 21.9553 30.1837 21.9553 37.3598C21.9553 44.5359 24.806 51.418 29.8802 56.4923C30.1602 56.772 30.351 57.1285 30.4283 57.5167C30.5056 57.9049 30.466 58.3072 30.3145 58.6729C30.163 59.0385 29.9064 59.351 29.5772 59.5707C29.248 59.7905 28.861 59.9076 28.4652 59.9073V59.9073Z" fill="#F2F2F2"/>
<path fill-rule="evenodd" clip-rule="evenodd" d="M65.3876 85.1874H70.3201L54.9376 48.9824C53.3764 49.6456 51.6976 49.9874 50.0014 49.9874C48.3051 49.9874 46.6263 49.6456 45.0651 48.9824L29.6826 85.1874H34.6126C36.2702 82.6124 38.5475 80.4945 41.2359 79.0279C43.9243 77.5613 46.9377 76.7927 50.0001 76.7927C53.0625 76.7927 56.076 77.5613 58.7643 79.0279C61.4527 80.4945 63.73 82.6124 65.3876 85.1874ZM49.9999 71.792C53.5271 71.792 57.0087 72.5885 60.1849 74.1221L52.0074 54.8721C50.6741 55.0221 49.3282 55.0221 47.9949 54.8721L39.8149 74.1221C42.9912 72.5885 46.4728 71.792 49.9999 71.792Z" fill="#CCCCCC"/>
<path d="M40.5777 75.4152L39.0527 72.8327L53.8077 64.1077L46.8477 55.8402L49.1427 53.9077L58.3852 64.8877L40.5777 75.4152Z" fill="#CCCCCC"/>
<path d="M59.4222 75.4152L41.6172 64.8877L50.8597 53.9077L53.1547 55.8402L46.1922 64.1102L60.9472 72.8327L59.4222 75.4152Z" fill="#CCCCCC"/>
<defs>
<linearGradient id="paint0_linear_1326_1221" x1="50" y1="0" x2="50" y2="100" gradientUnits="userSpaceOnUse">
<stop stop-color="white"/>
<stop offset="1" stop-color="white" stop-opacity="0"/>
</linearGradient>
</defs>
</svg>
