<svg width="100%" viewBox="0 0 120 120" fill="none" xmlns="http://www.w3.org/2000/svg">
<path d="M58.6403 98.3295C64.3399 98.3295 68.9603 93.709 68.9603 88.0095C68.9603 82.3099 64.3399 77.6895 58.6403 77.6895C52.9407 77.6895 48.3203 82.3099 48.3203 88.0095C48.3203 93.709 52.9407 98.3295 58.6403 98.3295Z" fill="url(#paint0_linear_1301_1689)"/>
<path d="M96.1098 102.82C99.0413 102.822 101.908 101.954 104.346 100.327C106.785 98.6997 108.686 96.3858 109.809 93.678C110.932 90.9702 111.227 87.99 110.656 85.1146C110.086 82.2391 108.675 79.5975 106.603 77.5239C104.53 75.4503 101.89 74.0378 99.0147 73.4652C96.1397 72.8925 93.1593 73.1854 90.4507 74.3068C87.7422 75.4282 85.427 77.3277 83.7981 79.7651C82.1692 82.2025 81.2998 85.0681 81.2998 87.9997C81.2985 89.9454 81.6806 91.8723 82.4243 93.6703C83.168 95.4683 84.2586 97.1021 85.634 98.4784C87.0094 99.8547 88.6425 100.946 90.44 101.691C92.2374 102.436 94.1641 102.82 96.1098 102.82Z" fill="url(#paint1_linear_1301_1689)"/>
<path d="M101.51 83.0494C101.614 82.9288 101.743 82.832 101.888 82.7657C102.033 82.6994 102.191 82.665 102.35 82.665C102.509 82.665 102.667 82.6994 102.812 82.7657C102.957 82.832 103.086 82.9288 103.19 83.0494C103.402 83.2918 103.518 83.6027 103.518 83.9244C103.518 84.2462 103.402 84.5571 103.19 84.7994L95.3501 93.4594L95.2901 93.5194C95.0971 93.6859 94.8478 93.7724 94.5932 93.7613C94.3385 93.7501 94.0978 93.6421 93.9201 93.4594L90.5201 89.6994C90.3071 89.4597 90.1895 89.1501 90.1895 88.8294C90.1895 88.5087 90.3071 88.1992 90.5201 87.9594C90.6243 87.8388 90.7532 87.742 90.8982 87.6757C91.0431 87.6094 91.2007 87.575 91.3601 87.575C91.5195 87.575 91.677 87.6094 91.822 87.6757C91.9669 87.742 92.0959 87.8388 92.2001 87.9594L94.6301 90.6394L101.51 83.0494Z" fill="white"/>
<path d="M77.0597 70.9996C76.1111 71.0153 75.1947 70.6559 74.5097 69.9996C72.4273 67.9142 69.9543 66.2598 67.232 65.1311C64.5098 64.0023 61.5917 63.4213 58.6447 63.4213C55.6976 63.4213 52.7795 64.0023 50.0573 65.1311C47.335 66.2598 44.862 67.9142 42.7797 69.9996C42.4454 70.3345 42.0486 70.6003 41.6116 70.7818C41.1747 70.9632 40.7063 71.0569 40.2332 71.0573C39.7601 71.0578 39.2915 70.9651 38.8542 70.7845C38.417 70.6038 38.0195 70.3388 37.6847 70.0046C37.3498 69.6704 37.084 69.2735 36.9025 68.8366C36.7211 68.3997 36.6274 67.9313 36.627 67.4582C36.6265 66.9851 36.7192 66.5165 36.8998 66.0792C37.0805 65.6419 37.3454 65.2445 37.6797 64.9096C40.4316 62.1542 43.6996 59.9683 47.297 58.4769C50.8943 56.9854 54.7504 56.2178 58.6447 56.2178C62.5389 56.2178 66.395 56.9854 69.9923 58.4769C73.5897 59.9683 76.8578 62.1542 79.6097 64.9096C80.0947 65.416 80.4214 66.053 80.5494 66.7424C80.6775 67.4318 80.6015 68.1436 80.3307 68.7904C80.0598 69.4372 79.606 69.9908 79.0249 70.3833C78.4438 70.7757 77.7608 70.99 77.0597 70.9996Z" fill="url(#paint2_linear_1301_1689)"/>
<g opacity="0.4">
<path opacity="0.4" d="M91.1303 56.9098C90.1822 56.9233 89.2665 56.5642 88.5803 55.9098C84.6508 51.9757 79.9845 48.8548 74.848 46.7255C69.7115 44.5962 64.2057 43.5002 58.6453 43.5002C53.085 43.5002 47.5792 44.5962 42.4427 46.7255C37.3062 48.8548 32.6398 51.9757 28.7103 55.9098C28.0354 56.5861 27.1194 56.9666 26.1639 56.9675C25.2084 56.9684 24.2916 56.5898 23.6153 55.9148C22.939 55.2398 22.5586 54.3238 22.5576 53.3683C22.5567 52.4128 22.9354 51.4961 23.6103 50.8198C28.2101 46.2169 33.6717 42.5655 39.6832 40.0743C45.6946 37.583 52.1381 36.3008 58.6453 36.3008C65.1526 36.3008 71.596 37.583 77.6075 40.0743C83.6189 42.5655 89.0806 46.2169 93.6803 50.8198C94.1822 51.3238 94.5234 51.9652 94.6611 52.663C94.7988 53.3608 94.7266 54.0837 94.4538 54.7406C94.1811 55.3974 93.7198 55.9587 93.1283 56.3537C92.5368 56.7487 91.8416 56.9596 91.1303 56.9598V56.9098Z" fill="url(#paint3_linear_1301_1689)"/>
</g>
<g opacity="0.4">
<path opacity="0.4" d="M104.62 43.4199C103.665 43.4201 102.748 43.0426 102.07 42.3699C90.5518 30.8517 74.9296 24.3809 58.6402 24.3809C42.3509 24.3809 26.7287 30.8517 15.2102 42.3699C14.8753 42.7041 14.4779 42.9691 14.0406 43.1497C13.6034 43.3304 13.1348 43.4231 12.6617 43.4226C12.1886 43.4222 11.7202 43.3285 11.2832 43.147C10.8463 42.9655 10.4494 42.6998 10.1152 42.3649C9.44023 41.6886 9.06156 40.7719 9.0625 39.8164C9.06297 39.3433 9.15661 38.8749 9.33809 38.4379C9.51958 38.001 9.78534 37.6041 10.1202 37.2699C22.9931 24.4065 40.4469 17.1807 58.6452 17.1807C76.8436 17.1807 94.2973 24.4065 107.17 37.2699C107.675 37.7734 108.02 38.4157 108.159 39.1152C108.299 39.8147 108.228 40.5399 107.955 41.1988C107.681 41.8577 107.219 42.4206 106.625 42.816C106.031 43.2115 105.334 43.4217 104.62 43.4199Z" fill="url(#paint4_linear_1301_1689)"/>
</g>
<path d="M77.0597 70.9996C76.1111 71.0153 75.1947 70.6559 74.5097 69.9996C72.4273 67.9142 69.9543 66.2598 67.232 65.1311C64.5098 64.0023 61.5917 63.4213 58.6447 63.4213C55.6976 63.4213 52.7795 64.0023 50.0573 65.1311C47.335 66.2598 44.862 67.9142 42.7797 69.9996C42.4454 70.3345 42.0486 70.6003 41.6116 70.7818C41.1747 70.9632 40.7063 71.0569 40.2332 71.0573C39.7601 71.0578 39.2915 70.9651 38.8542 70.7845C38.417 70.6038 38.0195 70.3388 37.6847 70.0046C37.3498 69.6704 37.084 69.2735 36.9025 68.8366C36.7211 68.3997 36.6274 67.9313 36.627 67.4582C36.6265 66.9851 36.7192 66.5165 36.8998 66.0792C37.0805 65.6419 37.3454 65.2445 37.6797 64.9096C40.4316 62.1542 43.6996 59.9683 47.297 58.4769C50.8943 56.9854 54.7504 56.2178 58.6447 56.2178C62.5389 56.2178 66.395 56.9854 69.9923 58.4769C73.5897 59.9683 76.8578 62.1542 79.6097 64.9096C80.0947 65.416 80.4214 66.053 80.5494 66.7424C80.6775 67.4318 80.6015 68.1436 80.3307 68.7904C80.0598 69.4372 79.606 69.9908 79.0249 70.3833C78.4438 70.7757 77.7608 70.99 77.0597 70.9996Z" stroke="url(#paint5_linear_1301_1689)" stroke-width="0.35" stroke-miterlimit="10"/>
<path d="M91.1303 56.9098C90.1822 56.9233 89.2665 56.5642 88.5803 55.9098C84.6508 51.9758 79.9845 48.8548 74.848 46.7255C69.7115 44.5962 64.2057 43.5002 58.6453 43.5002C53.085 43.5002 47.5792 44.5962 42.4427 46.7255C37.3062 48.8548 32.6398 51.9758 28.7103 55.9098C28.0354 56.5861 27.1194 56.9666 26.1639 56.9675C25.2084 56.9684 24.2916 56.5898 23.6153 55.9148C22.939 55.2398 22.5586 54.3238 22.5576 53.3683C22.5567 52.4128 22.9354 51.4961 23.6103 50.8198C28.2101 46.2169 33.6717 42.5655 39.6832 40.0743C45.6946 37.583 52.1381 36.3008 58.6453 36.3008C65.1526 36.3008 71.596 37.583 77.6075 40.0743C83.619 42.5655 89.0806 46.2169 93.6803 50.8198C94.1821 51.3238 94.5234 51.9652 94.6611 52.663C94.7988 53.3608 94.7266 54.0837 94.4538 54.7406C94.1811 55.3974 93.7198 55.9587 93.1283 56.3537C92.5368 56.7487 91.8416 56.9596 91.1303 56.9598V56.9098Z" stroke="url(#paint6_linear_1301_1689)" stroke-width="0.25" stroke-miterlimit="10"/>
<path d="M104.62 43.4199C103.665 43.4201 102.748 43.0426 102.07 42.3699C90.5518 30.8517 74.9296 24.3809 58.6402 24.3809C42.3509 24.3809 26.7287 30.8517 15.2102 42.3699C14.8753 42.7041 14.4779 42.9691 14.0406 43.1497C13.6034 43.3304 13.1348 43.4231 12.6617 43.4226C12.1886 43.4222 11.7202 43.3285 11.2832 43.147C10.8463 42.9655 10.4494 42.6998 10.1152 42.3649C9.44023 41.6886 9.06156 40.7719 9.0625 39.8164C9.06297 39.3433 9.15661 38.8749 9.33809 38.4379C9.51958 38.001 9.78534 37.6041 10.1202 37.2699C22.9931 24.4065 40.4469 17.1807 58.6452 17.1807C76.8436 17.1807 94.2973 24.4065 107.17 37.2699C107.675 37.7734 108.02 38.4157 108.159 39.1152C108.299 39.8147 108.228 40.5399 107.955 41.1988C107.681 41.8577 107.219 42.4206 106.625 42.816C106.031 43.2115 105.334 43.4217 104.62 43.4199Z" stroke="url(#paint7_linear_1301_1689)" stroke-width="0.25" stroke-miterlimit="10"/>
<path d="M58.6403 98.3295C64.3399 98.3295 68.9603 93.709 68.9603 88.0095C68.9603 82.3099 64.3399 77.6895 58.6403 77.6895C52.9407 77.6895 48.3203 82.3099 48.3203 88.0095C48.3203 93.709 52.9407 98.3295 58.6403 98.3295Z" stroke="url(#paint8_linear_1301_1689)" stroke-width="0.35" stroke-miterlimit="10"/>
<defs>
<linearGradient id="paint0_linear_1301_1689" x1="51.3503" y1="80.7095" x2="65.9403" y2="95.2995" gradientUnits="userSpaceOnUse">
<stop stop-color="#532797"/>
<stop offset="1" stop-color="#1B46AE"/>
</linearGradient>
<linearGradient id="paint1_linear_1301_1689" x1="85.6398" y1="77.5297" x2="106.59" y2="98.4797" gradientUnits="userSpaceOnUse">
<stop stop-color="#11ADCF"/>
<stop offset="1" stop-color="#1B46AE"/>
</linearGradient>
<linearGradient id="paint2_linear_1301_1689" x1="36.6297" y1="63.5696" x2="80.6597" y2="63.5696" gradientUnits="userSpaceOnUse">
<stop stop-color="#11ADCF"/>
<stop offset="1" stop-color="#1B46AE"/>
</linearGradient>
<linearGradient id="paint3_linear_1301_1689" x1="39.8603" y1="34.5198" x2="77.4303" y2="72.0998" gradientUnits="userSpaceOnUse">
<stop stop-color="#11ADCF"/>
<stop offset="1" stop-color="#1B46AE"/>
</linearGradient>
<linearGradient id="paint4_linear_1301_1689" x1="33.1102" y1="14.2899" x2="84.1802" y2="65.3499" gradientUnits="userSpaceOnUse">
<stop stop-color="#11ADCF"/>
<stop offset="1" stop-color="#1B46AE"/>
</linearGradient>
<linearGradient id="paint5_linear_1301_1689" x1="46.7697" y1="55.5096" x2="70.5197" y2="79.2596" gradientUnits="userSpaceOnUse">
<stop stop-color="#885CC9"/>
<stop offset="0.5" stop-color="#6D6CD5" stop-opacity="0"/>
<stop offset="1" stop-color="#537CE0"/>
</linearGradient>
<linearGradient id="paint6_linear_1301_1689" x1="22.4303" y1="46.5798" x2="94.8503" y2="46.5798" gradientUnits="userSpaceOnUse">
<stop stop-color="white" stop-opacity="0.1"/>
<stop offset="0.5" stop-color="white" stop-opacity="0.6"/>
<stop offset="1" stop-color="white" stop-opacity="0.1"/>
</linearGradient>
<linearGradient id="paint7_linear_1301_1689" x1="8.94021" y1="30.2999" x2="108.35" y2="30.2999" gradientUnits="userSpaceOnUse">
<stop stop-color="white" stop-opacity="0.1"/>
<stop offset="0.5" stop-color="white" stop-opacity="0.6"/>
<stop offset="1" stop-color="white" stop-opacity="0.1"/>
</linearGradient>
<linearGradient id="paint8_linear_1301_1689" x1="53.4003" y1="78.9195" x2="63.8903" y2="97.0995" gradientUnits="userSpaceOnUse">
<stop stop-color="#885CC9"/>
<stop offset="0.5" stop-color="#6D6CD5" stop-opacity="0"/>
<stop offset="1" stop-color="#537CE0"/>
</linearGradient>
</defs>
</svg>
